<mxfile host="app.diagrams.net" modified="2023-11-22T11:31:11.881Z" agent="Mozilla/5.0 (Windows NT 10.0; Win64; x64) AppleWebKit/537.36 (KHTML, like Gecko) Chrome/119.0.0.0 Safari/537.36 Edg/119.0.0.0" etag="3CzyWSGEMr3udZI7c8wn" version="22.1.3" type="device" pages="2">
  <diagram name="Student POV" id="wGSrXqZ8042X0GQs9N27">
    <mxGraphModel dx="872" dy="491" grid="1" gridSize="10" guides="1" tooltips="1" connect="1" arrows="1" fold="1" page="1" pageScale="1" pageWidth="850" pageHeight="1100" math="0" shadow="0">
      <root>
        <mxCell id="0" />
        <mxCell id="1" parent="0" />
        <mxCell id="I2LjJuXlh_yyAwzoq0Im-1" style="edgeStyle=none;html=1;fontSize=10;align=center;verticalAlign=middle;" parent="1" source="I2LjJuXlh_yyAwzoq0Im-2" target="I2LjJuXlh_yyAwzoq0Im-3" edge="1">
          <mxGeometry relative="1" as="geometry" />
        </mxCell>
        <mxCell id="I2LjJuXlh_yyAwzoq0Im-2" value="Start" style="rounded=1;whiteSpace=wrap;html=1;arcSize=50;fontSize=10;align=center;verticalAlign=middle;" parent="1" vertex="1">
          <mxGeometry x="80" y="40" width="120" height="40" as="geometry" />
        </mxCell>
        <mxCell id="94V-WA4Xhz-vZ9kCUlkt-22" style="edgeStyle=orthogonalEdgeStyle;rounded=0;orthogonalLoop=1;jettySize=auto;html=1;fontSize=10;align=center;verticalAlign=middle;" parent="1" source="I2LjJuXlh_yyAwzoq0Im-3" target="94V-WA4Xhz-vZ9kCUlkt-17" edge="1">
          <mxGeometry relative="1" as="geometry" />
        </mxCell>
        <mxCell id="I2LjJuXlh_yyAwzoq0Im-3" value="Colegio de Montalban&lt;br style=&quot;font-size: 10px;&quot;&gt;&amp;nbsp;Student to Student&lt;br style=&quot;font-size: 10px;&quot;&gt;Evaluation System" style="shape=hexagon;perimeter=hexagonPerimeter2;whiteSpace=wrap;html=1;fixedSize=1;fontSize=10;align=center;verticalAlign=middle;" parent="1" vertex="1">
          <mxGeometry x="60" y="120" width="160" height="40" as="geometry" />
        </mxCell>
        <mxCell id="94V-WA4Xhz-vZ9kCUlkt-110" style="edgeStyle=orthogonalEdgeStyle;rounded=0;orthogonalLoop=1;jettySize=auto;html=1;fontSize=10;align=center;verticalAlign=middle;" parent="1" source="I2LjJuXlh_yyAwzoq0Im-4" target="94V-WA4Xhz-vZ9kCUlkt-109" edge="1">
          <mxGeometry relative="1" as="geometry" />
        </mxCell>
        <mxCell id="94V-WA4Xhz-vZ9kCUlkt-112" value="No" style="edgeLabel;html=1;align=center;verticalAlign=middle;resizable=0;points=[];fontSize=10;" parent="94V-WA4Xhz-vZ9kCUlkt-110" vertex="1" connectable="0">
          <mxGeometry x="-0.5571" y="1" relative="1" as="geometry">
            <mxPoint x="-1" y="2" as="offset" />
          </mxGeometry>
        </mxCell>
        <mxCell id="AESjJVJeeAhlLlY_9NK1-82" style="edgeStyle=orthogonalEdgeStyle;rounded=0;orthogonalLoop=1;jettySize=auto;html=1;fontSize=10;align=center;verticalAlign=middle;" parent="1" source="I2LjJuXlh_yyAwzoq0Im-4" target="AESjJVJeeAhlLlY_9NK1-81" edge="1">
          <mxGeometry relative="1" as="geometry" />
        </mxCell>
        <mxCell id="AESjJVJeeAhlLlY_9NK1-83" value="Yes" style="edgeLabel;html=1;align=center;verticalAlign=middle;resizable=0;points=[];fontSize=10;" parent="AESjJVJeeAhlLlY_9NK1-82" vertex="1" connectable="0">
          <mxGeometry x="-0.775" relative="1" as="geometry">
            <mxPoint x="7" as="offset" />
          </mxGeometry>
        </mxCell>
        <mxCell id="I2LjJuXlh_yyAwzoq0Im-4" value="Registered?" style="rhombus;whiteSpace=wrap;html=1;fontSize=10;align=center;verticalAlign=middle;" parent="1" vertex="1">
          <mxGeometry x="80" y="280" width="120" height="80" as="geometry" />
        </mxCell>
        <mxCell id="94V-WA4Xhz-vZ9kCUlkt-23" style="edgeStyle=orthogonalEdgeStyle;rounded=0;orthogonalLoop=1;jettySize=auto;html=1;fontSize=10;align=center;verticalAlign=middle;" parent="1" source="94V-WA4Xhz-vZ9kCUlkt-17" target="I2LjJuXlh_yyAwzoq0Im-4" edge="1">
          <mxGeometry relative="1" as="geometry" />
        </mxCell>
        <mxCell id="94V-WA4Xhz-vZ9kCUlkt-17" value="Homepage" style="shape=parallelogram;perimeter=parallelogramPerimeter;whiteSpace=wrap;html=1;fixedSize=1;fontSize=10;align=center;verticalAlign=middle;" parent="1" vertex="1">
          <mxGeometry x="80" y="200" width="120" height="40" as="geometry" />
        </mxCell>
        <mxCell id="94V-WA4Xhz-vZ9kCUlkt-34" style="edgeStyle=orthogonalEdgeStyle;rounded=0;orthogonalLoop=1;jettySize=auto;html=1;fontSize=10;align=center;verticalAlign=middle;" parent="1" source="94V-WA4Xhz-vZ9kCUlkt-28" target="94V-WA4Xhz-vZ9kCUlkt-33" edge="1">
          <mxGeometry relative="1" as="geometry" />
        </mxCell>
        <mxCell id="94V-WA4Xhz-vZ9kCUlkt-40" value="Yes" style="edgeLabel;html=1;align=center;verticalAlign=middle;resizable=0;points=[];fontSize=10;" parent="94V-WA4Xhz-vZ9kCUlkt-34" vertex="1" connectable="0">
          <mxGeometry x="-0.4444" relative="1" as="geometry">
            <mxPoint x="-5" as="offset" />
          </mxGeometry>
        </mxCell>
        <mxCell id="94V-WA4Xhz-vZ9kCUlkt-44" style="edgeStyle=orthogonalEdgeStyle;rounded=0;orthogonalLoop=1;jettySize=auto;html=1;fontSize=10;align=center;verticalAlign=middle;" parent="1" source="94V-WA4Xhz-vZ9kCUlkt-28" target="94V-WA4Xhz-vZ9kCUlkt-41" edge="1">
          <mxGeometry relative="1" as="geometry" />
        </mxCell>
        <mxCell id="94V-WA4Xhz-vZ9kCUlkt-46" value="No" style="edgeLabel;html=1;align=center;verticalAlign=middle;resizable=0;points=[];fontSize=10;" parent="94V-WA4Xhz-vZ9kCUlkt-44" vertex="1" connectable="0">
          <mxGeometry x="-0.6302" y="1" relative="1" as="geometry">
            <mxPoint x="-1" y="6" as="offset" />
          </mxGeometry>
        </mxCell>
        <mxCell id="94V-WA4Xhz-vZ9kCUlkt-28" value="Submit an Evaluation" style="rhombus;whiteSpace=wrap;html=1;fontSize=10;align=center;verticalAlign=middle;" parent="1" vertex="1">
          <mxGeometry x="80" y="1360" width="120" height="80" as="geometry" />
        </mxCell>
        <mxCell id="94V-WA4Xhz-vZ9kCUlkt-37" style="edgeStyle=orthogonalEdgeStyle;rounded=0;orthogonalLoop=1;jettySize=auto;html=1;fontSize=10;align=center;verticalAlign=middle;" parent="1" source="94V-WA4Xhz-vZ9kCUlkt-33" target="94V-WA4Xhz-vZ9kCUlkt-36" edge="1">
          <mxGeometry relative="1" as="geometry" />
        </mxCell>
        <mxCell id="94V-WA4Xhz-vZ9kCUlkt-33" value="Evaluation Form" style="shape=parallelogram;perimeter=parallelogramPerimeter;whiteSpace=wrap;html=1;fixedSize=1;fontSize=10;align=center;verticalAlign=middle;" parent="1" vertex="1">
          <mxGeometry x="280" y="1380" width="160" height="40" as="geometry" />
        </mxCell>
        <mxCell id="94V-WA4Xhz-vZ9kCUlkt-154" style="edgeStyle=orthogonalEdgeStyle;rounded=0;orthogonalLoop=1;jettySize=auto;html=1;fontSize=10;align=center;verticalAlign=middle;" parent="1" source="94V-WA4Xhz-vZ9kCUlkt-36" target="94V-WA4Xhz-vZ9kCUlkt-38" edge="1">
          <mxGeometry relative="1" as="geometry" />
        </mxCell>
        <mxCell id="94V-WA4Xhz-vZ9kCUlkt-36" value="Submit" style="rounded=0;whiteSpace=wrap;html=1;fontSize=10;align=center;verticalAlign=middle;" parent="1" vertex="1">
          <mxGeometry x="480" y="1380" width="120" height="40" as="geometry" />
        </mxCell>
        <mxCell id="jLtNxDhiQ_q_oaKfSS_k-2" style="edgeStyle=orthogonalEdgeStyle;rounded=0;orthogonalLoop=1;jettySize=auto;html=1;fontSize=10;" parent="1" source="94V-WA4Xhz-vZ9kCUlkt-38" target="jLtNxDhiQ_q_oaKfSS_k-1" edge="1">
          <mxGeometry relative="1" as="geometry" />
        </mxCell>
        <mxCell id="94V-WA4Xhz-vZ9kCUlkt-38" value="Store Data" style="shape=cylinder3;whiteSpace=wrap;html=1;boundedLbl=1;backgroundOutline=1;size=15;fontSize=10;align=center;verticalAlign=middle;" parent="1" vertex="1">
          <mxGeometry x="640" y="1360" width="120" height="80" as="geometry" />
        </mxCell>
        <mxCell id="94V-WA4Xhz-vZ9kCUlkt-48" style="edgeStyle=orthogonalEdgeStyle;rounded=0;orthogonalLoop=1;jettySize=auto;html=1;fontSize=10;align=center;verticalAlign=middle;" parent="1" source="94V-WA4Xhz-vZ9kCUlkt-41" target="94V-WA4Xhz-vZ9kCUlkt-47" edge="1">
          <mxGeometry relative="1" as="geometry" />
        </mxCell>
        <mxCell id="94V-WA4Xhz-vZ9kCUlkt-49" value="Yes" style="edgeLabel;html=1;align=center;verticalAlign=middle;resizable=0;points=[];fontSize=10;" parent="94V-WA4Xhz-vZ9kCUlkt-48" vertex="1" connectable="0">
          <mxGeometry x="-0.7617" relative="1" as="geometry">
            <mxPoint x="9" as="offset" />
          </mxGeometry>
        </mxCell>
        <mxCell id="94V-WA4Xhz-vZ9kCUlkt-64" style="edgeStyle=orthogonalEdgeStyle;rounded=0;orthogonalLoop=1;jettySize=auto;html=1;fontSize=10;align=center;verticalAlign=middle;" parent="1" source="94V-WA4Xhz-vZ9kCUlkt-41" target="94V-WA4Xhz-vZ9kCUlkt-62" edge="1">
          <mxGeometry relative="1" as="geometry" />
        </mxCell>
        <mxCell id="94V-WA4Xhz-vZ9kCUlkt-65" value="No" style="edgeLabel;html=1;align=center;verticalAlign=middle;resizable=0;points=[];fontSize=10;" parent="94V-WA4Xhz-vZ9kCUlkt-64" vertex="1" connectable="0">
          <mxGeometry x="-0.3288" relative="1" as="geometry">
            <mxPoint y="-7" as="offset" />
          </mxGeometry>
        </mxCell>
        <mxCell id="94V-WA4Xhz-vZ9kCUlkt-41" value="Your Evaluations" style="rhombus;whiteSpace=wrap;html=1;fontSize=10;align=center;verticalAlign=middle;" parent="1" vertex="1">
          <mxGeometry x="80" y="1520" width="120" height="80" as="geometry" />
        </mxCell>
        <mxCell id="94V-WA4Xhz-vZ9kCUlkt-60" style="edgeStyle=orthogonalEdgeStyle;rounded=0;orthogonalLoop=1;jettySize=auto;html=1;entryX=0;entryY=0.5;entryDx=0;entryDy=0;fontSize=10;align=center;verticalAlign=middle;" parent="1" source="94V-WA4Xhz-vZ9kCUlkt-47" target="94V-WA4Xhz-vZ9kCUlkt-59" edge="1">
          <mxGeometry relative="1" as="geometry" />
        </mxCell>
        <mxCell id="94V-WA4Xhz-vZ9kCUlkt-47" value="All Evaluations of the Student" style="shape=parallelogram;perimeter=parallelogramPerimeter;whiteSpace=wrap;html=1;fixedSize=1;fontSize=10;align=center;verticalAlign=middle;" parent="1" vertex="1">
          <mxGeometry x="280" y="1540" width="200" height="40" as="geometry" />
        </mxCell>
        <mxCell id="94V-WA4Xhz-vZ9kCUlkt-55" style="edgeStyle=orthogonalEdgeStyle;rounded=0;orthogonalLoop=1;jettySize=auto;html=1;fontSize=10;align=center;verticalAlign=middle;" parent="1" source="94V-WA4Xhz-vZ9kCUlkt-53" target="94V-WA4Xhz-vZ9kCUlkt-28" edge="1">
          <mxGeometry relative="1" as="geometry" />
        </mxCell>
        <mxCell id="94V-WA4Xhz-vZ9kCUlkt-53" value="&lt;span data-buffer=&quot;&lt;!--(figma)ZmlnLWtpd2kuAAAAzkEAALWde5hkSVXgI25m1qOrHzM97yfDU0XEeTEMiEhW5q3K7M7X5M2s7h51kqzKW11JZ2WWebNqulnXRUBEREREVEREFhHRRURERERERERERERURER0XdZlXddlWdZ193ci4j6yugf9Z+f7puPEiRMnIk6cOHHiROStn/HqYRT1z4edS3uhUtecalYbvaBTbHcU/zWaZb9XqhQb635AVncDv53Je4bab5SBc0F1vVGsAeWDzrmaD1AwQC/whdeCoTWce8HpaqvX9mvNotRcbDQ71bVzvaDS7NbKvW5rvV0sS/0lB/bKzYbkl+N8219r+0EF1JGg5Df8HuhWpfdA12+fA7mSRbb9Vk2QR8vVtTXSY6Va1W90eqttWi8VA+nb8UzfTjW7bcbhS89OBJ22X6zbEvJXubwd8dXVRsdvF0ud6gaDrFXpmBUNZSeLF4cRAjoLrKR5XdzaQtCg4FDuNRumU8pkzrSrHamkG5NB2NrpRyFkJYo6phcQ1ZsbBtRnhuPBcHy+vT8Smkaz8aDfblKgmmVTLhzsTD6eQh+UKjdL3TojBtSlYmOjGAB56+1mtwWQW2sX60KXX202a36x0Wu2GFSn2myALGz4pU6zDbQgMiBdrFUN2yW/Vqu2AgGX2xAxbjPnR9r+erdWbPdazdq5dcNkhaYaZb/MVKR0Rzv+WenSMQRXEsTx4Fx9tSn6c6LaoLGGwSLxaum0iOrqoFJs+b0z1U6l5+qeLDUbDXiaDl5TEl1drTVLp8lde6ZaXjd6dx286jLS6+t+uVoEuKFSXa/U+F+KbwxgYAd7kwN7CLtdK0qjN58pBpVqr0PL5G7ZKLarxVXT/1s7DrjNAL0S8iB3e0zitP5RDM/o8h3FIKgGTGgPzs2ulD36cv3xa76bqsckjKQ3bQpBPrbeLHdNq48Ldvp74ZnhbKcTXpzZGb89eKBbbPuUKjrjJkcz5nrT6KvXgaOInyVGNpdky80zMv78leap0Cq2i7Uaa5XlVO+1ndgW5tE1f02wi35jvVcuIpGiaXxJ8qzKrmSWJbNWNVyPGLhZK/sydSsdVqr/YLMqvTzaavtlfw0tK/da7WbJD0RfjzENfk3Kj8f63Auqro8nElS9W+tUWwZ5Vb3Y6BZrvWqjZaR9dcU/W7QKebJU8TfaBrymRTWHvrbJsC0oSiM9u75V60rzNxTb7eaZeJg32lwsi5uCbr1OX3qnug0m0zC42ejkLUHL90uV3mp3lZkEcauZcswLJqXZLhpTcdvqKBwP6ixc6Q5q0utUmIl1MW8Y4HbdGFVdLrZP+8Lac4MU/czJamSxrWKzyOZLzVozyRWMjps6CwHmxEBm/VKj3GR9kF+yVeLssmgbGgp4JGiudXqGB7mVSrGN7rqcMaZ+27eL9Jh/toSc7MiPV8xsnwiKnW5iR64yrQBcXesiqmZQ7UgTJ1v94dhp71LQZAmAVGhUucq00Jp0FYxOUJIaeWDAAAWFporBAZdLcBA5pc9X61bMBYzoqSrAwgaLSWzmYnWXfS/Y6o9CK302rrbfKRnBr1VlnBp9Na11rN7m/O3tcMv1OF/F+rTZtoosIApVud1spVm91sQWMpONMmapKx30Voul0/OonKzfkjH5C000qopygFbdFmaYVNeaZwxAFzq2DwEaUeuVii3RzHyaY0G1S2abKAjTcrg1mfZnw8mYOvFmQMvML3IF1gy3etpPtc2rhX3ZXTrT4S65uA68exXfzbxu7O9uhtPueDiL4NsuylBVq3rWrwUAml6z+QqlV5qMo9k0neFFZh68knIzJF0vyv7o0Q8n9lxQYusFyK/BsdyzNQouY6gXgtl0ciEsjobnx1RImCl2DSYWQGNeHehZ4lJ/D42Mx8NwjWroxF56dkGLXGQQOZv1H+hWa+zBGDqQeadTYsKsd1BAfCgfBjRBLWS3lsV08+jdRX4pk7+b/HImfw/5I5n8veRXMvmnkD+ayd9H/lip2i5lWz9uR3tqMhTJ1HEq2mDVqr/hywh0PHBvdTIZhf1xcy+MFSTfbdiVihipJjshsA66q9hmA3tnzQI2+mqEX5lMh8+djGf9EdWdZczMLbpspOCd6rKHr1VND9PaG+F0NmTpCa7ZoihTdbXZ6TTrQF59sh+Fpf1pNJkiH7aFIraPAlVqNwNWWrUNrP1zviw9VI+chwtmmmoVGQq2sISKk89j6UkKJKVqDWihLhZVqiwyxTi2QEvJ/Jns8gaLfTKtD6dT6UCyisysk2oDYIGwjOxoHVFhr9yPdqw98UrswqBUquDa2By7HvKtxjoodarlS6qDDUm8Vlnc1Jx/cW8ynR1eQzlcHkw6m59bKCpG4PCY9nWMSJasV+tfmuzP1qfDgWWSt8sqI/G0g55dZbm0Tqs/m4XTMUVQVVtmhWCjja3WZj73Z5N2GA2fC+tERKY7RjJJP3QCeVKtM90fbzn188rVQJwd4anwrtlNAXQwuzQKg9CNnalrB01nHzv44SS6hHZZXeFIgKvRKMnGkuv49RYbrDkO5GM2CHMWJpK8bL8B1PFugeHob12w05iMqYKBfhDpmh5oNkp8UwNbaqPXNHeZdK1IvVWUTEwMcM5UKE326dDU1Vt4pHqI3U1OrtjtyM6Vz7AqGFan9qPZcPsS2Ufk0iqWcDA3fHvyyNn8qt85Yx0DpASfwM6iMbggOXoE1Qf9XqeJlTECmkOgdExytd7ChycnJdBYabQm0VAml/0ElOu4Kq4i9q497RiyM1Oxzew1nIKKLdDKpbY4KyI3fVDH3A6PQUMyZsnSrJ3kpXjqMAXW75ITLXndbZuJW2VDJs2Vak3jseZx23ux602+0G3hz/o9c3botbuNTtWclhZYZeWqeDdGARardG3az7R8FecIlr/hroprtN6TqmxN5HW9yUka1xTYs7AtyFGrIi4YcN4W4EwIWcHmjOe+ABVesnGMOTybES6VcSdJlyk77Z+Lqx0hu9G0J6wVYDuOipnLo0meFUf+mG0iVpzjNsuZcENqn+hM+2M7pXaEN7Phckzo9Ngh2HpFFpApVjJTbKroNQ7rpJ493Ky1m8lJIZdBxTtFPoOze0Ihg0k2hYVWN6hYnGO2mGJiXkspyrJaThEJpyNyrLY4x2klxcScjqYoywkxxYiE03HbUSYRopjZiTlkzO+qOaxlefUcLuF60rTksI7pNVlczPPaLNKyvC6LSjhej3mrlnpSRu4GfEciHsUGVs8syRs5JjTxJlPMTX4/YgXbGT9OkKTUXa2WKFDCOs5oXPpM1hPTZD1yasgSS4ryQjeHKdi6c7gFa9WT/GLQatstYWkd9WTLTRDLjjRBHLGQWSCsZbs6VuaRnTNiPo4eQlY4IoE+FmxNJ6NReTi1loROuzX2FTYAJGwMtK2LGZqJNQgHGLFZSLl/tsVeaG1qCQ7iVJmcXu+yC2kvIjhEY8CLSo8meEYG9EqTEa6Hzk/VstLn+cfb5J9cn3/y1juh8kVy+hL/eG1QUKeIh/knt8M/ecMpmE32qLAlsHq20nvOSkPg1fuz6fCi0gu7d95JXu/eeReJt3vn3SS53bsEmd+9S5CF3bsEudDqT7HI1fEgpJ53fn84UA9lmK4ozx4XKDzoj/ZD6uh9c3S4VXlrSKnR3w2Vzm33d4ejS9DrSPZqAA8ms2hrOtybkcsJ7UZ/OuxTZX83nA631obn96eIlt3ZHZEVasd8AmgiCyb2CGyama8a7PW3UOq5uoQacBjEiJm8JobhTpVXYLAmkysDzHLAkBI8MDD+FOps5jdbu9Tfi1DmtArrzxwvNUkvzngtn6OedD0HopfkxEUnXilgARSDXQdcyPBvxXLPdgsXnn/x5PGeAEx/AiNkJiehqqLTZqnpINyF1XDrTDg8vzObIyI8J0NKSKr4/sOtOZKUD4cLs1Gshf2Zmai/1i1OkhSp0t0tQ+JG45VageBzMipSM1DSgottLhDoEZd4sdkuN0iXimttKV8uN4xRO9Lo1mVoKzjuEt87yr4rojlWtulx8ehJT3DwlfSqYtEcIq4u2fQkpyhJrwls/tr2homfXCcLnPT64IyJNd9QCs5IeiOTLPibSiUTWLw5sN7ZLRUCfKS3Oj/otma7If27XYRC+ij2SZHfHeWOOSs/eq1WlHE8pr7eFjfhsQE6S/o4TiXS/uPXcKJJn1Cx6VdVbLtf3bH5r3nApk9s2fRr5aRF+qTa2qrkv67ZMumT2x2Tfn3L1r+zdbohcrqrhhkivZtU+nlPu1OT/L2kkn9KcbW9QXpfcXVD8k8llX7fv2H5PG2DDpE+fbV2RubnG0iF7hmkQveNxdMVGcczS6fMCfKbSmtmQT2r1DL5YqnbFrpVXAbJlzCSkpbXLH+fIKD0Z430btJ10ntIKzQr7VVJhf+pih0Pra1Lf2qV5inRGzxh4+c0qjgkpM1TrafeT9o61bpf+DxwqvW0O0nbp1p33ksa1E7VpV6HGLLQd9kdZV42xEkiPUMq/ThbP10X/LlGzbh3Dza6pzuk38xGIv36FtKA9Fs3EDjpQ62gI/geqeCf3T7dlny/3apIutnursq8bwU40qSDju1H2GmYM8420yTzd36DkBrpzoYtH27YcT9n47TRlwsb7U6bdER6N+luEGDBlRqTSn5Ceg/pHum9pN9G+hTSKel9pBHpU0lnpCKnfdKnkR4EAbZfqYdJhd9FUuF3iVT4PZdU+P0bUuH37aTC79+SCr/vIBV+/45U+D1PB8HdwvA7dWnD9PD5AgjLFwggPF8ogDD9LgGE64sEELbfLYDwfbEAwvh7BBDOLwEwXf1eAYTzSwUQzt8ngHB+mQDC+fsFEM4vF0A4/4AAwvkVAgjnHxRAOL8SwPT5hwQQzq8SQDj/sADC+UcEEM4/KoBwfrUAwvnHBBDOrxFAOP+4AML5tQD3COefEEA4v04A4fyTAgjn1wsgnP+9AML5DQII558SQDi/UQDh/NMCCOc3AdwrnH9GAOH8ZgGE888KIJx/TgDh/B8EEM5vEUA4/7wAwvmtAgjnXxBAOL8N4CnC+RcFEM5vF0A4/5IAwvkdAgjnXxZAOL9TAOH8KwII53cJIJx/VQDh/G6A+4TzrwkgnN8jgHD+dQGE83sFEM6/IYBwfp8Awvk3BRDO7xdAOP+WAML5AwBPFc6/LYBw/qAAwvl3BBDOHxJAOP+uAML5wwII598TQDh/RADh/PsCCOePAtwvnP9AAOH8MQGE8x8KIJw/LoBw/iMBhPMnBBDOfyyAcP6kAML5TwQQzn8KYEzUnwkgnD8lgHD+cwGE86cFEM5/IYBw/owAwvkvBRDOnxVAOP+VAML5c/pwfAkXbcZ2re5VOnbVPPFN6/29PXGWtLc9neyKezeb8K+3OppsKq03L83CSOW0DWwpL8f15Y7kx+LZ4ccN+rO+oV1UuY3hIJwoz4tponu605EQrQ1HnJ9L4pUWB88hlqH00kw6hb8Y7fQHk4cjQG8Hl4RIwA7+Ix7pIJz1hyOgfMhYInEy8EwPiBSERKyAF2bhrglx2qLFg+EmZ9gtgZfMzYNt1l2AK+/I/98mt/C8pn3GtqyWN6fCc0zL5I6YzijvejMBVym9JYJQz1beRDzVmTjyuYNhNNzEa9MqT+IujI6rQoRHH6ltvQDvcbQ9me6qHbU4NLPxYq2WDNTZwQ0fS9dBLffHIDmcVKVIMFdZDK4jni3TtqiuJp+9GzmpjljMzmR/NChJ/+r9MQj6c/10wimHynRzJZIqAEe3jWwNpZvSl2p1bE9GumaKsMTqeLg7ec6wRAstgtbIeFGfODBK8hKtThJgPj8ccxKSls8MBzMGpq6Zw1asl7qort2SlnCE1avz6jpxcuvMVRnlU17hQnhJjZXeBlsbjuNKzK5gysPzIb3LcQohZ13j56q8ZJwPXOAGghzMh3acXq7P9X6nf56GtYANkRp6HK8cE+e2jV+ztdOX40I4jaDQSc40VC3LkL1I4OZBOCXcGnb6zK96q6dzIxODNSG5TWadS6IRvY/YMnTh/OjS3k7EXqEXBslFT8ROoRc3OT5e+Lb9iSzMN2h9lWWzQQcgocdL2wwmkc4rtF7e7o9Gm0Tb1iiI1Fgf2UERpzR2YXVyES6v1nqFHNCrcvroLAnccrqdutNfQR1z+HCQyPf4aHJegvyGpDMpxWNvbm9H4QzLopb1id1hHNlL6l29Sw7+tvXXaH1ywLHrIBzUTCd+JKevKVtEKuejdphOWnpOWl4qLZbwnLRYTHPSKmzTl6xwFi6XxaIbKTzmJLDk8BkJLP8rJHDk8GhXBnZwNdN/Rnu0kumD8vKbREUHkRpwmLb20528czsxHQeCAhHEhDGLIK0UpZ0mwoAtieHcMNrgSAcJB31b9zRLZ1EVVp04lbeE3bOnTKT8sFmULCQpOweQEyAZfV5yxWgLVuQWMZOTaVjLXDJiFbeH02iWyEXaokPZ/MK6TJ7yFrcmu7t9hrBqd5M0zLCp7Api0IxBJtBoAe1fzrw/OHD2eOFy27NYTpSDXWpKLAV5aeQVM5ddz2kLRuDA3WGtYnWQmUHX+1MmyUk62y0brDFaJTUl0whnD08gd+NBOLtI/7lEjfgnGdXldkG2ZW5lkImWiY/UQ1oHl3Y3JyPHPjIZ2mW3tnDMJBIGHiEY2SgC+h6uIRo2G6YuZotWmh3f89AEOOyBw5nkmI+s1sOxbG9IyLU1yXLW+1G4xpyvi0vBOC6NTaBF4wYMt7eb49GlNlI/6I8Mda5s9by6u7s/k9GZ3cfy9eb5knHWyytGrJzqgF4yfjRrOoTm7VprV+CDugSDvmRFfbG6Bq4OcEFd/Xa4DckFWxozZyGZQgi9eEnZqkL+DuoGbHQMbrK/V/0KNExa9ZGLzXxUH7Hc7DLIgtn7Fyia9FskVB38S5QBYyo/ElFnJ9z9Cq0F2AP8B2jcxMwEhv4Dek5yAatMZlxGR92QwCDLzFveHo7C01bOkSmkKu6jq1np4wkS35OmW+gZsyq6F3EwwTQ737IwGuJFTS+JgnYmwf6mxAU3IRMER0W9gGnYm4zDsZvvxf3x9kiuLeX2KctyaRh146KQJauWbbdLcf16P8JQ2JHmtmKs5ar39jdHw2gHZtKwdLcz6YT93VraPWnEO9xIroqTLVYnnrFgJsNO146wam4HD9NTVoMjliWHJzjXhflVcWW+G3f/qzhjyPqjIDMjcRXL2j50Ud4x45NeKz3BvzI+qdm6ME+5KYZ8XxzYfOqcFkgS53Qh2puG/QEUi9HO5GFkjVu9GiLBgdgSyJcsDxRV/LZl04jLHLGVXW7logOOXnLAsY44vGYHqI635Vhhurqh9GDfWija9Vo4pxMpKIcHw6345j0O6EukxrwO0CViZyaa6BkcMX6JBZPHSEnFduzjYgZd5VLpTM+czvShRtihJcMRD513ppyxILXqgKkcbg/Zi1B6almen2S/bSJ+XJiW29Q6wkAtJde4imud+A5IC5yUeJKLb4JyXEQwjpgy77IJccEhYvoF+0oOaNF1YBU/8DwWTrwClgK7A72hlWTUclPKtYq93ZQbJvfWRl/GwI4hqUkUrlruxS/BLicvoqPs1KKgnreZoA2XzyDKFFUSNRFdbPQ5exkZGipVaBQ3CAKbeLnikss9ZdPBGRN59iTtEZw3BDl322XukvM+Bzo5D8OZ6RSrBUX8sBACFbTXTSSdaGULtr3WPb2Ne0F4tmbACRDLEHGMjPa3t7lIwWIM5Yxiusai3MLlnMnGOCPgpXLRwXmxM+bowPyTrZbNuvk8q4hcc38m7pN4uJRj4pgO3BTZRMkvQrE2mW6x5uXND3brQgR6iQ24uBlNRvuz0LkhGLmt7Kj+Rqsjrssb665J5VXXeg3fdzdUxdqZ4rkAQNeMUy3PQGJTcB/7Ayce5WHDk1WfG+/vBtgLJiJSOJ7ORnA2jiw2kGWAz3V+H6s4dTk8OvrFPC7tibGcjtX9ajnDyS30I5aby61EtlR4ONTRlKvDHFtnP0GNzDmNrmrLgjbjTS7XwjJC8DC2iGkzD6qXFFZuzse0Hhj2EQcuELAjIpArHKvS8vSKhPuedvO0YDz3NDnnr63ZN1R5otrNtkAF92hmATvInmP4ZXZK25a18/HG6rbHeHMVAmaasYrm0PtIMK5KxIzG1oO8J5Nti9ytJIaX5YLAQRjNlxlmCGf9cu9MxWdFV6q1cq+51rPFXDBxzW1fhzNCVvs5VyIVveJ0K+kF5wmEWByfR4rET9gBMllvOMZnbBtDTzZnN50apxTq7k+H9FAPhtHeqH/JLIYV8RZN1ug+/W+N9jnyu9b2TAZJUg1PkvM2FS7YgbZMWTsc9TmI7dgK+T2DtBV2QxvroYqbakCOPeVwFHJuQ5Xz9f3RbCith9O1YTgabNipYIK2WFDIHmXQ2eta7mgZoHjR9b4EgpRKnp24hypisEk8Z5Vz1ggD5WM7XEgs9ILU6c3dNC8mDfjjwZ4cVhBD6EDZSOkGbttePPmbXNranrzQU7mkMgC2YtSSWowmQ25XNNUgsbQi+QBIyrkZrpbLXLrTL2yn0WUuV2KUfTwSP72xVetD2zmaiUAKl5d42VWYUKMGmDC0GLH4tdXmGWuBWFBFJxq25rb99UNayy5DL9m8zOUrqgqki+Ox21exeByHZ5cs9Q1usQpvu1g192bm2t5LXqbluDTqxei8ZJKiQr14Nili3zybFi1alknpUomrP7/d496m2pXFspyYgyNiIBCjvZxeMTmuTNdpKDvlR9eAemvFetW81jpmsu5e8bjJnIkbP8FC9dO+XFXzO2hST95GsYLBXM2ksVOniJMW0SqW3UO7ayyibt9GXWtzpldu87uuKZXN7eT1l8tXeXomIn4FU5yWMvej/mYo8Qm9ZynlpPZKzp8pUT3sSxRVgg2iyIFYbZW3y0Uly0S7hePFyyV3RQ7ECIxt1xKpFnbA3mzioFyMNY38iKfys0nQ37VZtlxjpZpGQ8WAzDiZoqkLbH8xem14ERPBvuUc/vrkIHSu52Q0OG1MEKdl7PNaYnu9DG1lSLB2eqlKjJgq0WSf7Vs6VDWdtvnSIYcfjzIcifBMn0xM6AI2bWyr0d522tSIMmdBJQ5zoWuCQ/kzw8H5kK2B9Yjx8ogzmLo06Q+GxIFkAPnZENM46+/uVaPJ/fdxKwdrfIkphMKZQQlxOChKsDW3hWceZ/JSEC/JXNmX34ExRepMpdrxV5vFtixdbV44yVLw2MAuOOJirVWRG0x5TCRaDKTNDwTcr388nBM2ZkfdcEY1QGkxPfFLPvNziDjnBdgHtCJAOdht8BBdpdUuexupniOwg9eRyaifQ38bCIeA0Zg9wnuBOZaKoCS14d6n7O30o1AtKM8AFnnfHttz/A7mOSqXyVqCp85kCEdQOVKLun9sZ6ogqUU9bRi17BFTDu3o5Fs0xzHOunvSY2jf441SbTJ9f42nnpdFOhVTr/X0j7pN8deNJ1CUM30Vd/BtWv1f62qwayyquxxoexAOo2CyPXO7YSBFdOOtmgj3ZNzdGzDprmu/AG5tOBrFND9O3rqiMeYnwTQP7JlSUtkX4rIv2R50kIb6B821psmW5wb767ETBPyzGplcwQP6oubAnSlK3al/1FxpHnKJ3utNnsORMdhnOaEG09DYHLPJC6c/Ya86qE8m49GQa4LRpbiFT+HA7BCpYv278SK5h4grO3Rm2Kbg9XFBMmKD/ukY7ZzvpOBNSYE5c6cFPxMXiP+dot8cozP94Shgu0H5r+jIIAcghYRLVfVhK3CDs4Rxye9lSqTDgvtIBmc7Jdjfz2ClR4L7aOag1upjYSKu0/Vv6Cv2cDUhpZfvQz0C1p0Np6ETf0m342zL7hcc9fHvmtMBiqBentNfiOfaeJDpZH9Iq+fCzWDnV9C/AUoqZCNB354t2IC/VZHvsOjECmd07cOaG/7I0M8r6sv1fhzugXu2kTdw5YRN7z5C8efiiBJiElPwiThvpvmP5TBie3HaLORPIrHS3QzqT2K6MHFOV7grthdjpflK/5RyEaGWw+1I/YOnX4Izm0Ejykj9nae/13MDlAG/WatvS7PWQMhUsDE6uQleokX/dnJg1jnRDVtgBvD9801jgbgAkH06Un/v6ZcSEuHmsjgNV/c3mSzxvX8hCUIFEslSH9H6S3oORXDro1p/2Rhkc4IjlDWJM7aLe3GFmmydqqB+w9tNt5E3e+qfzbWfnBbZy6+LYVu5iunun5/293bEeuNSLKvrD6Es4akEG78mXFY3HMZZ0tMzllWRS+TsT2a+Wt1xBbSt0ElKNlgEcsOgnqgefRnSEncFX2IrUterx8SwLdqQbOZK40b12HmMJTuDrxDf2dCxNGeLv0Uk1GCT4gr1a2LYFn2rYSdK8CqtnhhnbNlDTlM6DsviUf/RSJ4z+rA/JtSyuzsZ1yR+g/8mcYp/N1eKt3Jxtt/noJhSPI8FlZCUh6zCUMbB5pel+s4sld0RRV5ZkudnSTAwcqEM+gVZdIDXwxJ7MJxOKHphtqixb9+B2jeoe+q7rlDodEBN1YuuUMpVh/FD1Ex9d7a4JG9ED7iUz+CSLeyi+h7NzoxFipmP1E9ZysQOfAiKPuOxF2w3q/d54s2Qb3EkRp6GkVZ/EKNryIf8H3JkvFhj6iV+8xfshKZ3rDnnGH1mHmWcj7d46q88maUujmLNRIrifiyq39WzyXkCAIPmuNlxj0AjJlD/XlLAjdBcyUd0cn+p3pZTf6HFWAi3d+TUx1PVERTnCK1faBpfHQ6GabM/bHAdexErqGfg6uOpVfqDdqfWoYzBviETulpwoNXapxMWv2Bs0aKFLPob0ocYSw60Bc+gZhLuXk4ytvAbI+wKx+oVSS3qmwgAJq80uEl3GVv4rAEKhyFjfsfcCx/LZC1BcRffmb5dJalFlQWsRk0bLKTs5BzCEq0Jzpi/N3nq1zJbdtOOhWFdcxnSVl3HVnAuSqI312bzlqQSGYfCPZZYVjdn85akYVHGfKk71G2ZrCV4wGLQfvUYdXuSsYVtmze/a3ycelSas8XBNl5G6nw8Ic3a8gdtBYsSiq/KIizNN4fGzYnUx7T+Wgfbkl4qmJILV959CGUJt6Xd9XCyG8r9499rfU8WYWnO25ZjpFDdO4+ydDty98z6RC0ne7VwG3OYSh0R/4DOErRF0IcoXpFSrE5ms8nuFbj84GGaKzF6ZUqUlgxlK9xD2Vmg6NwPHabpTPABKE1JXmViAPi9rMkI486oEb9ZaT8sB83i5qGg9fO9zYl4G4yvYjwLcD/hcLa3Cfp1Di1DTJA/6ZBmTAn29Q7L5OKyo+iyZN7okDRllZZh/7TD2aYS9JscWppKkD/jkKapBPtmhw3M/Fo0djMrlJ/1dtia7NafyGSmble3XglvVaMVye/ixMioVYXtdhlb+ByTl3Fh2enDhWzekowMqtUfyB4ByW42b0loEFSJmcD0mEWq1tRFgzy1b39nWFGXTN6WlnHKTLaSdNsxpIE/sEWYaOO1pAUfswWEJ/DjTqk/tFnrepD/uM232MbY34Phc6XWKfXXc2jTfpWASkSX/sYWZTtui8rqP7qineFo4KquTyfy45i/tSWuW2YKwf6nOaxVAtCft2jDxvAPwtE2wvk7i483aqqomvo+zksg27ih0yh8UKb+IpP+/RZtfvjYUL9pc67PbqZo6f3e7nDMoEP1xrz6Ldmc48wH5mqYXqAjnC5mqqX+mMvnYIxur/d3WUv9qSywT3ookLsqlROv8c6/VxakvbUMJH6fFLw0LVilnfOpncP0fZ9OWRkf4ONa/WgG16EWV7CvzqDK6W3sj2mCdYzPUJ1Vr8lQtfABwulBGJirCjr9S5weiMgZn8PQt9U7Mij5/eaK+uW0rwTK5Or1T7V6p2axxDeXHYpUR/1qpqkOoa7Jvszyu7OU9T4Z/jc26dc0mbgkM4L3SESGuw6TZ5dlakd9uY97b6aBwDySDFCyWdE8rBQj8/tpV6sp60i9Pqc/mxaZqUBCJlqnfi6n/pe21xfGhf5nrT/s8hIOxMexdxzP8/SfxbKR8z081Is8IisJzufMDea/p5gaIzVHc/Uyj2hJgje12XrZh/9HiqW+xX0xxZXQOibLdDVSL/b0/0nLxNFKLgFe6qn/mylimOrlnvofXj8J4kbqVZ7+b94u6oEzKG5fpF7t6eflOI4f+szNUfXftMF20RdnLJbV/2RezHHjCm+J3qoR3CMWb7A46QH7jfqYN2YRHHrh9BbNLr0FnivBrQs1Nrl9uUB6SU69wBvhqaK4B8PwYUP77hzjMJ1zDih+rWYgznUuITAZWrIb/Rh+6CCctFChTZaaepuHqx1JFNawe1dO/Ye4Ls1IAE+W3EfynOAfNkFdeWDFYRwhhupdnvqBDLpkv5qwSFTeIstWAsH+5mwaxh9VeKenftCVl/pbnHaKMIyYJXZKQvW2pDre258lt4fPy6kfdwWyzXNXxkJ8rcNUJgdYMaNW7/DUv8canTH4ANt/QeTOqH8KEckCQQyuG1xqWzJTHZK/dezq4aw/EFE8P4f6Wpx/IDLkFK+/22FaeBbsLpfq4XjfGvwX5/T3eGae25OHY6scEQVTb7do7Nn+7niu5JdsCRWsVkUEtxiEQVryM7JTGfQvExJ0axiTJS+kmNvtobnQl4n475eVt1hVw63hHse5mOgfs0+p/rcXCVlHMIbgg1r9H+5BJZ6wS2XGXB1gnf8zsXg5aLUnkxnZz7tsPBKm4u/iWjVTIjfbZuH8jae+EBc5hmZH+ltP/dcYb6u0+vsRVvDzHnEaQtKoe3koiioz8092ZByX/fH+7hrLGXVRL82p/20tJgXS/bjgZTn1nYSa2KrQxCMGsD7GM/vmqxFjViFcj6c5W7wq68FuPf5YZkCM8onLkJa4FJqIKlNgllfTvpC4+nKsJfcjTFwVazQ1DyCxHjfOYyxZbXfIeGpDEkhuInE5W1yfiUViii9griG4JZu3JM1N1sfcd1aeoB53GGdJz6L36EfW3cMNfPzlWEt+jsP7gEi4+TAJ7aknqycdQlnCZ1shBAQNwEV4O/rr5lGWDgNCdMlMQiR+xtPVk+cxlmxzZBREor/EC7X++kzeUmzZp62iA+qNWt2ZZm35YBs1kxD+BcI3Zg6ZqugypCXGUJm2J2vMgVZsDUnWEhzYsawidasXcX2oH5awIAb4C1q/RCM5o5uiBZS9TEfGz0h/5P2g+gmsvJxdgl2W1g6iYVJf5+gIVURcXG8yJNtiR4QTBRvrAsDw5x0hE8U8bZnLE2SqvoX7lq0UR+9h8otc2nGTaLzIaTiOF9eKervjktjaL2n1Lt13Dy2+rNVvxvuYDbMKumZmYMPtYgX1fj2mLpEusmbdf06r3zJB1NGh12Wf0hgeVyDuhNiqmIBe/nZclkq3KlJkJELwaY2JuoyimL7h+qxWv2MIUA5zQ/mQ+iMjiz6ex5RLGJGju0OSE1JxjJcpEyB75qesQ12CJ00iN5mPU+rPUwZyjSMcHoHBp/WF8BIhsPPnkexbc+oz+mCCf+jL5tHamRIjRd5/paWnst0RZtlZDbcnU/xIImwywIf0f3bh/hrbfEQkXf8XPWO6JWImklevyKn/yoTQ0Z0mlwGsUzqKZzHBLhI+BKYj34WXEM1Sx/7FXri7GQ4Mg3fmcL4IBu7UQwywQb04j2+EUjDPMst0z2kSG8YPedFwd2/E+St+ydnqj8ORDPc1Xn+LkZhIVqVTr8nyeFOeCJ0EzNpYHPXmvPr5DFHNXc2/1TsQEjCm+VfncUJiTAmrs7/LyMQ53uP2Uf1iUiZnztVLAVs0Je/31LuTEsFRGKnX5PU7s1g2uvdr9SsJqh1y5EeXjTK+NM8I4xLpirn6idRr8+pXE3yHWR43MBV0/NMJNtia7EH5+rz+S7YaLgouoSIX1Qc9trxNlAi5b8Sk9GIgvfhfh0tAfzSvvsx+x14/skbBv8jOMZBSJPyduSl2ISY/jT6v4JWI0Z1sbwdM0X5kRJFX/8ljx6RevJYE/XFP/bZDxz6NoP/Uo5u7Q7ZeIbRc1M/l1e/Qj8xFLM1/yENF2LHx/97gqd9loBzIcHy25erobXn1R55VRNTF6CzjeY9Wn/C2xMi0bUQ4tXbvyNP01GKtF7Ci/swbTLYIThODzvJ+e179Oby5SkHK2VcIEXEX/VnrthRhe2Cdl9pw0wrnc0b3irPZdLhJYCdS78mrvzajMBNmhvKBvPoveLi7eEXJFwe+XX0xQbkvDHyH+p8IBH3hNimiIaYRkbwgt0HTqffs5fpsV3tkKdS7tNSvTeRzF8rD6TdSzNUFK71FCGpZ3nEq/msVu4G8EtCd5ro8LRB8L0Z6dfu9oly34aC8I5NsL8EWzFdt15rtM/bJw4LJrxZLpx1i0SDMg7AlXEkcV+PuWm/ZW0DaBEeGuCoSo8T+iU1LEdnfAuK9rSXUVhh5cEGmisUWhlHTVrP5Bdtu2W0ic0cBD6ljGzjWyrsADK0xvYBe5kWcKG36q4t3e1rPF/qUXILVBaMC6fu8eN2UneKnPN4Lj0OlPkUwyclpzN7O05+DDI2YqWT5W4r3eSq3MYdRd9SrgbwVQd7q8IMsLd8vXW/LB4LTd1Feiqw2yvblUy5+2hW/r8rb11FprYJFuNdU8ctr+V5uBmtfNC3OI+PXTEvz6OTZ0/JGNaiu1kS57LOxcrEjz2VW4ndmR5NXX8eSb7ZKU6YTvcNjPj5PY1q/jOhESmT7cWVeV11GdmV2V68222UQ0mAiwpMO6Wom+Gsc3rSYYK91WNtAgr7OfKWr0enJl1v8dqfqS3vXW1GWml15TpmZpRvq1fRh343yei/O3CQliSBvlqIkd4t5apc8w7vVZOPHe7eZnOlGp9psSPO3p+/kHhVro2yGyU6Z6v0HMnqfJfEpR/kT9QbLgmTLSlaAUIN6SHklILvbUTHD+0PwnivzKRCmrNMZTs6uekNe+LnF2RGunHux+5xys9tWyvIjsHxEOh8iYT8c0Kv0HeplrMUlgjzD9mOXsXU0PgQpywgkhs8rmh205RqALMPqE7C6rNynMGWz5wqkZ5a0SrjA+B/yUsy8IFOrNfsJaccsu12njX0qaSxT7lOYNiZIvJS4pZgOSz/uGw/GPpr8JBScPrHKDWbMzGtuRoSS8ygb5Gc8lT+YzOxu+VlPFXb3I7ZFyX3OUwuWdSch9/RM4Fo4Pk9MHatpCTZiDh5e8Ay/DtOeltYTlmwBExyCsnQuolOzDtzqEaReORsgSGIKIjX7vq5jP56lHV02wKDjN/dz8neElqGLOAg7mKhzZi2jwpnnI+1wW3mFMTKy5p3uD8Jt+so6eO5kd3MYrvXtr5gbVry5rWz1RlLxC4g0++C7ULoyncqn5ldlza+WH5a0q2V2iF5gPlreoxt0vtqo+O0q9qJaq1krYQtycy2k72CQdzwEtxj/EWWYIy7LqJes9MZ2XARgEGJ/tBHXyLF7ZwNA+T0jfFe9KnULM5mtL6Ix2ZEv7k3lCRUHDcMrUl/y1NJc8wbPTixBCwtjh+QMZDOv0vb3FDaH4s5V7kib8hMk8/UdI0ISHf8ACHFhrBslvye/ygExX7t1qG/oJktPHHaTXdF66A5B8us2h/2yp71qBj3PBB4z6dM/eUpOh4jqKxB3hJLZaNZbqLjxBRT9xeOTDzhLf7V1pnw5UuIG2M8luu8uKvPrKFItw+75ZdTCPpT3ih22qIpfRkMgke9MBj37dwOkGH+jywYmLXWzePeKdz4Uq3LuY5ksv26jVOz4gPZBrHtO69lqqfGZ+/mEhTc4MaM5BuUiqg2rarkzJifTQSAqia9a0SwWS7Lt0YgKfPGcOmZa0/ktszE7ceQMshf4NdwGU+p8aKACXRVJOd802xi3axxYJlM5XaPaHj6wAej6DI3E7wR0Q8zWk04qb3nPodxosnWGUJhhvDCncsMtwzNvuUfqRTldiEzT4aBpcJSycjr23QprYJEL+m2QS5gcNi4uRSe7bF9MiVbLsvPOXxaoqzrnWn5QalfNB65UqSWTpt13n7xSIOYud6q4UUxo8nKKJy2cCoyMF4xf+oCgFlvnOhWDXFoXc7kcGPSR4EzVuJ4rp5vymhroaLsbCObYatF8wew4Bxv5EqpZiCeq4t8TE/MzgVyMm30mHReW0Zq4kN2FxFjHIpEm+ULrI77XZLL2HBI5WfMmq9brYD1qRESEsfLyI0A0D26b+5y77R3PK3PMEHsH3otIP37IJ4/aw8Y+4ZMpufxqWkHljY9oVorqNtKMThx5tpZezX5oLGf7MLZnCW95BGjYvDqnsCqXtcuuKE/zk+MzZ1JG9ZqcWh7Mo16LMs2jRIxYh9flVH4weXjMjodXJgc+zHJBFVC8CAGE461LKXZBZIJsp7OmDTsW1KI8tp5GptPN7RrlKNpS2R7j5kej5zsgfdJSagaoCkYDkIFyMoplohOpxRjPOEIPdJvGquQqfpFioHxwJWmo+NvEqmY+Qqbb5lt+bPPzZJ4tVrYYdyFb7KSFWa7bTwpDovyzCZz+0FYo40ikVxjKHqeZLSq/Ad2xBZF6c07P/7YrYmLxLuXDNbsQO8uHgAsJZ99w8RaHaQsd0NwhoxoJau6yGF1NCjJ3xTn2mE4agcSPuywAWSAwjAZIBXG18ISot7ArQYoKMW5Q5BeTvm24E0DH+IvMNQN/LztyaTImrAKT/qhoeiHbZd9BCIHDvCMwJ+eEX9GQKO/mtBvi/7AeEWeK60DKpb6XYrKj5M6WbdnQnFX5lEZ6bweUGWVgbv4OXY3Lb1vlbphyw6YtvwyNMfaif0kiJaMrxqmXL493H0kbZFPnnpiQ0daUuB6Nrdj+rnE/K+VqWR9l/Uz7lsCtuE11bGZkHEvciOT4PG5DbJp6WV6dMBPmhPl2T10FO9d8m9ZnNkwV95ibKeziuDsdVceN8GFOP6BOzrNWb8ypa+ZRZnUze9eaxoILw73ORESMfK9LUKuXirvGuV9W1yNCO+dcpef1DUk21ZE35fSNh7pqpZDp602HCKqxqh+EibsmAeibE6UK6LfcLLXM3T9RHLf7EhLOPJpPf36Im+FWSZmb9K0QI3XaPxf/cAhrfrqBE8GRvkEkplYzNkifXW2e7eGXAXut4F6SHNtfp1SRcAC5/Ol07ZlolGzKkSpo1NpgXVtvwVpU6LR9dOp5++YnU+Z5ORPu1RkdfbQWj6ayf4Gg2TrXK3fFNsV+lyUW2yGV9a7Nh4MuGlgdwNdLUKuXEmRumzDraeOO5iPb0NtzHPRiUktYRZYnxDQ4bMzA4hd9NkV7p+Adc2OIpltdA3mz4QyVoqVZ/BkwW5B/WC600ZXCjg29YntCYdRBIpQvJvTVXSxmpR/Jj5GXtllvaFMWJ67WAVoul1hHuH48P0TNZF8iv4LgMxN/1LSwYS2vEcAxNMa9ePBy+2ZUYOWkihYFLiYpKE4AEKZjB5WrMW+s8eQJhre0b8am40GLGxJ3LTfflfwVx1e4wvgW5inPOLkdFlAsxaUNuiOXUzg4W/3xQT+S+5/QvW1ky9jj/m/kus3i8Uy+HMpCMwFeW2ndamG+Ln8Fg21uywZqn6S0LTdMa5OtvhnPpvIy6IBNj1VqP/40OMzRcqqYdyhtDCLVFzkIE2u/wHEdGk7Xe2b9wjU4ZBPMKxm4uMvKxGR6HSaepYXTfMCCkjC8+Q4JkGtX70xmxPBnLutFnLocHNuApLKdzcLE5hzVV2LAPFsDVI1N1GTsyvKu2ioGe49D5Kw6kB+OFJI2g9TOFk1F27r5mSXe7xpOIbrYmeztTnDNtgiai0bSH2xdxkaDQ+HmcYYTqjd1t10xXqJ4OMREGVDOSSCOSYnbpPO2glewXBpQwZWWhlELOdAL0ZckE4hKgckxo3Lolx2BeI3O980w5JWr2YgjWTnMKn4OVhwBDQJpEYu3iSfiRlSWdpzAI/XBHM56YvwTRw0rmN5xqLZPLMRck2ikYxxm6dkmYRg7GqzhhA3fNPYRXNFx+HCS8S6blrJMSw4onkAwTN8wqljK6rgRPnxoCMzjIOncR3Mc1OIz/UzkLDe7wnWxmqJjUSPmSHKmFX242bh7wRwfehfFfDLovPk5qPpTLLfYvZJZYNizaH4dupXr9NL8VkGm2OXNwSSIayC6KIapzbwO8OS+Yn3JB3GdthniJmYOrFA1pyXupfvEjwjybbs6KBrDKIWjESHYqmAWEgxHWoNZnJ/Tlhmqysn3lYl9m4OWKhKmtyARgHq92rEZb74q+5x564Fk9gwXBCavH88zp/LanL0qVlbMYCCTQ2BVfjHHaoxMx2KJ61E/msVKZ7mrj6FUl6MD2HCv+ilOZ1n2edQe+5Xwz23O62G8FKqcCOXreF5k6BN7l4uHZn8Yy3Rd3rT06AodDZIeOaauE5H6DEeWuU4aM0xINzXzXOrF3NZElpYl62CBSom8IvXpnF6kjOCP/eYF0S8UAZODwNl52FQ6Nu9tyMkkjRHJcUG873BQIr6BBlClEuLVbYb9GVPK+vclCGbiWWqVC5ckp7vszDQqHfJuj2iZPiPORTQ/ZkpPPecUEqOVoMmzWeKygVpfvyC7otk938Nq3qWfoXpvTqWLQT2klyabNHTAODF2y4OQHTtsWJ5HsAWYB7OZRep9Ob1iRRxvYJF6f04+YulMf9NOMhcyOX2Mpqb0dkUdN3MW01SsIWAlnJjDt66w5VD9ITkBOJKYfVkki0m9eo9cqjSR+mxOn9zKzNLn8PwP5ubjb3LqWpb9mSlBK2R3nXySdg3/O2C2USKtrs+YpNi0RerjOX3DjAl2pugTOXWjZINEip/MqZuSSSmarSNgom7enmztR81xB2JXV6tbdpL5/9ucujUZXpBudEXDtSw9/lBO33YwvMK29uGcvj2RFSOQtwP+KBSv1lKxypM50P3xZHxJ5r8bo4zrAYSpw2Bw+ogsX7bRgEknGNXf23lgP5xeSmOk8057o0P8gytBblvNH3rSh+phBiK2XnE9G7RFSxxc9rA4rP/NmOcXsCRSavscJTPl6c0RimkiZM5MoPhWiLhZjBmxc2o3um7dVJG6u7tZYle39yDYnhn4drhrjbW9gkHVcKrBm2xuBiRSWVR5GlqV80MBR06ubxaJIaGnbRYCUh4EYDtQM7DdPVN5MQLVle/V4c/X0/sfTEvaBSqIRkJE41IBiCX7lTmzVwezyR5eOiwSb2PamOxyJLDj9+bMwjAqieoSypMaxCZcDduhedpxyuXLmE6WOKSr00l/sEWnuFmbo96al/s/UmNGX6fqi0zfXtyO+idCM3vxQm5l0fayTX0JK1SHMbJQ3h1CJXqTbcpjPRvAPFlwWqHe6mmjzHH+84SVh8JbOnRF5f+7nLrDaJB6kdYLAq32I4yL3X9ul3uj/siZucX+1hZdUHm1FEnoMMBZtCXLcb4jXX2mOhLnS+z+NGbQz1Ir5ksldLugjhrQaSyxD5NdS46lx23Drf6lEaIGcSKaWzRyIfr3OX1VZvDJkviHnLp6G04b9sDHME4a7lUUjVXG/nKpuT+LRBTjrREmmtCMbGrowjWGUJ4fswU9pK5FUwgnYQBH7IWj7ngg5mXrgnpeXl9vUO0wg7phM9aLSP0zgY5puGVtXRB+236IxrlA8qK6ybSzOkUNd/CnOYCv0WE79JtNmU/khBi4yO2NnrplTw4Bl8ZbReYREwTZrckP8rndC83xRL7KehuO6eySPAis2ju7Gl1iBI8qD7e3Szv7EnJYyUiNvUxbt2gh+QZWg2JUia3SeH5GFHkLu/ku2Fw1qjK9ErOnhYUt4R4VzS8ZkWlnB+kJiiYWN4mAifjRhcoQdZxu7VyiCb20dzlu+UrE8fiO7F0ZvyLji9WF+26GEI8QltZIioozRieHSD0/r3OSXZX2hCy/KVDLtNCY51DYuxJ2oR2/pDQzpTz3Z6zKPRJj7FX8p191QloWJfUIzABX7GFfT+NCw+dFeRykvt3jhNog1bJca/rFBszUWq1ZlO1FBx35g1JAXrFWNX9n2158Achn4Np+4P5IbqFuru0WstfHi+Y5ibk2JrcUN9kO7bkxbXrhKzedtGjbKGTbWIi5Fsf2rkZ5y49wt7uivG3mz+VwxonQ9yMJN+eN02bxz1aF8OLeFEPESrCoV+Rx2tyNrHpVnr3GPUi0mPdwcbGNIQrEKFnUj+TVsp9wSSKz6qQ8iEruGN2fIrVZjSzlr8zZ5zf2gsfce7q/i1yuylQD5f0HusWaTEWh0eQOVnJkFrh1lT+0bKS4mGR6XFLGJEvrbfkL7G1TQH45m88SHrF/1mfFSP0orZAcs/NRXZPeHKdWw/4tyhP013xnq1drNk+ba+SrGr77YuXVqRBQyTDJJBJ5eV7J+3OHLk7P78vmYeK7iYrWY9GbsCfTaO/eoEnVGBrcEIOP1Cvz6UOktXhiqE0gCTcPB5uauh+tiTIInHARjcRdMmwkDK4HIIyKvgQqOjmvty/Npy/0Aq6kWbzUHoo902NryfAy5l4yJPTCZEPa4WIjeYPzukzHUwKfUrw4+eaHbG4wP8jQzA3AvENleuTPbAXEc31RE/NOwUSb7b0hp9n5J22eeTiWvhHLrZt1lhcu8vJDaApr7WLdN1lyC4H50/Uut2gacJkl9KRpPka3bKFevKKP2E/GJfkVl4+X99H0qdkxCW6zIc36F1tcj2zLAy/u7n35XKlCOdv2L6vrYVP65tkr7f5og60BZ9YpAvu+ljtneTmuavFlXrHdqZaMQdLyN4Ht4vMaxQ2SXNF9+TVfkT9NUqjczb8LlXv4d7FyL/8uVeTPkSxX7uPfIxU5I4qgVpKbxKNrTS4XBTrGSmdFB4DHheZERbBXYTFJrp67iDxpXpNc05V/r637jS7pdTX5+0zXlwV3Q7nDvzeWZcQ3rVXXu4bHzUClYssN4JY6hwDSWzETJLfJq57b/Tr/PkpmwdjRO4I6MwrwaOnVYxC18HnsA/zzuPKa1H58cXVVuvkEd4//VW1p+avbMoCvcW+Fnih/9JP0a0usedInsf5Jvi4omj8d9uTT9i9zYdxI7gyMgO6SwdwtiHtkcPe6P0P1lFXzV6juWy3LzDw1aBmrdL/pwtPOmOTprWqpYwf8DUGz2zYfUXtGtS7j+UZO7TLCZ9aKq+bPQX9TtdEyf3T0WavdTsfIpWgfaACtSv/dRTAroxNPXhnYytAXNS5iEoHXmt2O5bXO9Qt20sxkpQ6NdEv++nOtbD+0fKrmr9uHMKfFcrflpwnq2bG6NeyVzr3Flr1XsU3dvlqUv7QOVCK01Kr5TDtNi8zLbqFWG2vCwHeDXHMTvI6myveALZ8KYQsLVQO/2DZ/tO1U9u3KsVTdH8U669Ybia4+llMkB0fH6XHlqjyAbZo+PKGcfiX4q2JBPUlqsgMAfp2dgCc7cd4pKdok/bwL/0R6cTe7hrT6FDQ++/Hpp7bNn5K/nyRm/DRg4W169fSOvB8CeGYHn2DV6FYxmU5dqvil09yUAXvy8dmSbzQ6V7MvbvJ0uut6UojhTJ2FGCe2T8S7mMz+UjzPts3lmOJIUGpzSWexK+ajfwIdD1rVRtKvE/Sa5GoSlNgo40nRJtvqNZ2270urwNcy36tNi79ORkB6vcjPom6QDpLeKKlt8ybTk1hYN9OEkAPeImxJb5XUsbpNpIbPALha5GZR6E7XmjJbtXqx/UDX1Kjbx1hA6FndjKdpqMvVoiVuJdADVrFs947aK0mgq+ZM2B2pJXq0m5LHlFl5Dvd4v96qYFulxa9e800Y9WuwX3ZhP5Hl47fNH0j82mojoBu21tfHq+0e0WfzWojMfUFsz74BG8Pk2NdFz8DSELePs99ITRH3N8n4SJ8VO8xt0TS02Pz9+iDO3E2mE2fuIdONM/eS2YgzTyFjVFUy95E5KxnTx3OJ5X9Q9hA7dd+c7jDfIuvXLW2y3yrT6PecrB5iA143xqRXP/TTGU8PokFJfl9pPilnvuZoojHW4wnxDcRzeCueQ7bIB4/PkHzucVvwnAxNLLk+4VgyJNZx+NyYK4kf3HK/k+GezH4gXKUfCCejy0TTxEubJ85hBovmT5Vf4bvi5LzSFX+3Q9jJWkhl3sh30j8BrA0gGCkB4RUxr8mvb1J/vzDn70eUuzeV+FuHPP7h2MEFQkyGsDid9h2jFV2Ya0G8K+PnyTfmk/MJ6sfsA+jYj/GqZkpztiR+bJS/jBcu3EzYvQvH8sC0+E5ctzky84OrdFbfy6xeVu5TyNR6/RjJMB2/d8Ovcuj3WzF5rAk72XL1Fu/yGpkOvI8O+IQKjF9p41c6jPNUkHj0B7M0BgdRZNIPZYvogxn+hxn+yP1Wz0tKO1KkFqqNDTZpsQ94rQGHR79jzJ7uYhdIvVatu242wlxwLrAmNY/V7vSKLfElCoHVqxbOujztkB7niGKM5NXwCcVpcHcPh1LiLycInrlcwzrriXNeHTQ5DVpYwt3ye09qpD9hIPNedC3OZmjep5X3/wDfFQAAzVkJdBbFsu6ZTn4ISxII+2ICssoim7L93Q0aRBSuICqCuERJuBFIBEFRSSQkgYACIiogoOyIsgkISALKLgEBMeKGCIosCi4oICL6vq8GMPe9c+97551zz7mcE6r+6Zme7qqvqr6u8TxfaVWmYPQbp2PK5ijVIU+pKtFD73yi63Vd7xye3n1gYu9Og7s8OWhY4p09VZyq0GCDV1FVVzVVRISnlK8ivMjE9IeGDUpOG6pCXsmnlVJRqgwF/omIVet9pTwlL1K1VIQf2T2pf3JC8391fxzVGO9xPujLg7X5YJe0oclD0pIGJtyWNvCJhBuT0h5LelSF1P8+zQQPC2j0nEzlYQ1lI7sPSU9JHZickJTWL6HTY0kDhyUNTU1Pe1S94sXGLfSiSu3yoajdPlRVMVup5xKw9gacTzXsmj4kSfVMHpR6Q/rAfkpd4/2zySLGwJp8OBLvz05J6eOP6VAlVqdOnzYtIgczlZAxFaqsQpWwUblFq4hLVzPbjO2oPM8fpe4+W3zEC2Xsq/05DOpnq6lvFh/xQ5nNvqijPO3nqOG3FB/RoczT+7opLwIjP+4qPhIZyoht0kJ5kX6u6hNRfCQUytx7Lk55IYzc0K74SIlQxqHbyiqvBEbG3FF8pGQoM+fdUsoriZElecVHokKZFbI7KC8KIzdtLz5SKpT5+6LmfM/okcO94iOlL72nlD9aTY8uPlImlHngvFVeaTwT36T4SFnuFM+UwEiLzsVHoi+tLQIjnZKKj8RcskEZjFz/SPGR2FDmH0Vtgtm2Tyg+Uu7SbGWxthmvFR8pH8poumKm8qIx8mFB8ZG4UMb3Ixw9N3pkyj94ocIlz5XEiD5RfKTiJbvF+GNUg3/wT6VQxv7hJ1SU5/03QPpPV1jaWVc4Mi+r6UPx5cymU6OmJKX2Pryic9XTESpyOSIFcPQRMZhJlVAllSrrRT+NeI6prARsgBUBlKNWPUO4EBiEAJ1Nt9KBdBWdQvPT0DQpjUcz0SDcOjfJ7XDhcXglQtMb6XlZnhqFcPBUjqdyPTXaU2M8leepsZ6aj3UVemqnF/G+p3bjDl9N8b2Qh0Uy9KJU6csRFQR7jlKHJN7zcLlsEPTV+Lumf5WKV/U8zMefxf80/0Pe8lR9NcVTNdRxj1dOehHRXtUsaNVVXdVYNfVzkbdCsQsjlffLxTvMss5JRpf+eK654YFkc+/ETSa9fLbRyzofNiWyXjSpk06ZuOx3ja7z+Xn5Qdl0RU3rU0mdVNbJyJ5zcW7QsQvm6s+rOo1X2cc3xLu6Ic+ml7/a6eT2X5qje2u7mCYr8IbaTr99Va4ofP+H3Wo7n0qrli2dXjnzB7N+aEt3T7/2llIfOJ8pyrLOs+1Nq3Eh/OUeu+dcS3dx0U/29L4mTt+/Lsq98kN9V2t5eXdkfnWn+d/KmTHy48+iX61cqNnniN1+a2XHx3Wrllxuvj1+Icr9lvm61Viqe3naNMu7Kn86wWrdaLt9oUqOBeCxh2yrYQxRTu8bL1IfrDNalDU/Z9isF7OtT+XlaVWtpkKjPH9qhM15t9DoQceeskfmT4ftnrB1Q1lG8348a17b9oxIvefcZEujnG0wQ6Ru9sU86zcaY/YPXyTSpwLDKjEVZKDQecrjC+FBq3fOzrW/9pxrOe/RvXOsHv3dJPthtzk2r9I0kfq5TW+J0rX1Dpv4zGKrq1/7hX3rvdX22YHH7P3rdlhNu/IipViPyuYzJd2FzG9t0jexTp/v+bX9o6iK6zH+Y/v8qRpOL9q20y7rXMvNe2Q9Xgv/zqq2DKas42ZsmSVSrx86WRQujA7XC6bn2HEdE1ybsVn25sPVnBjtuU0VHeX7u8o4MSc3pZZFKK9FycYmr1Jvox/9+yRRjl9YZMRQROzjG1417Va9Zyp/utto/rfm54vyI2pxDetTmTBlqZWRz3avwSb2mlvKbLL6jZ/2mfwuu6wt9bHBn9W9264yjcfsty/d+IypGrHfYpmJojTsG4Nw+Mj6VOZ2Omt97EgUfcMD34gSeVc0dvKb1ccvNKSnXIa7zt470Xf+uI4PiKKLuj1oD5z/w57v+ZCYV9fs0w9mOYK/flyEFaT0TzkK2Iyz39bDHd3HT7EjH/7dEg8Eqa61fAWAGYHg2igSFvlAlKYrvpDJNf303KYzlhJhHFx459XP7JMnjlps2SLav8YWd9qoxQfswTrbrOYWOeFgUyhSfz/iHVEIl4pLt1tNrMB+tkXJxbbDdQctEsRs23PtQcu4oMn0YDMONtiNx7KwW1h35cx0QRbyimWQ+f1TUuzUtPJWU7mljC8jv1wsMmKHV35YaGggBInRtZcP4URIEqNEagKHkUJAU/pUYGXlExqQgUJoqA3gQnAP7yvQHa67TxTgErsZFhYUxGV3MF1bjzXy8pduLG3u+LouLFLaDCgYauUCkUcUvFBli9UEDN3EOehqmZQ2n5r2vEjNfVLZe+5D+9nuc1bTeQwp+oxWlSzVK3oJYizKAbjBhTmdrrdLO3suPvc7o2OanEac9uaikPEmh/XJHmtl6fghUnlVI16yJ3u0MZozUSl399v0gEHkb6V/DN+1fmic1df03WOxTUtJT8gFWpHBOq7jLKsRMXZAwSrbZuxG5JytVl9/3zpLJDBYHt/wpdVMIccvnLC0NSW2+ZhFabZnG/S1oGpWg8khWndZYp02EPAz6inrN88LLmBXyL2tEc5XS0hZFgSkLkmKEvm927ZCnAWbU+cilScK/vlU8LxhJIiyNWF5EPlMrYx8eodb14ggiXxKiXxYEsoB6yNGw2cbXFIwKwtOEed3zH9Sgsr6jbDP5k4/O7C/3VjY0dEKlMj8H4kyosL3SIzGIXtrN2xyG0cPxjRpwZIUg8zWCLUlxvVPqRdcqBuq5fK7lEGdQUlqt6qks6Uqu42FnnvrvUoOefiMbTSmkkNJRdZA/rvz629glnhHuWB6neDCwTr1MOFRhGB9pxm+XVs3RK07hni6JsjDic80ljx8Td9rnWYum5rWAm9YLVKznFA5dNt4uVNs/cSJeo7xVf3amsFugRdH6Tcq4XwqNIzPSajQzqLQgJSahhjXUbnr7/sNvsaFX3tqRxg3+yLCMdH5f3sw9i9FQp4KQ35rQiyqPqKOCkMeCdVJyN+0Og42yzIne1QRqVlaAHu4KUEkWEuCwwKUP+rFzVxJoBATemraPlGGTf4EWAY4gDBg+FUzruMhiQu9sfAwSvVFQyngoMJqICPMdUXdvkLI7yTsv5I4YJqcseWQFZsw6flvDvk7rWU1lfTyGiHen4nbiB25HWYy2Q5yDWbNMix0lMg7E/BINsL7BZGA4AvBLghxSKXW+sojQrkTvX94quAdvgvwzum5JaTgAO+kU9wSpWyJCmuojCypUc2xnhFUek6n1VhJHbhsHVIEsMNoQmi66tfea+5f19BJ0ts/vKFD4gsTZT6Vqz9v6zTpBxUkdXPz4XYBvzvbIOzgU5jUOFiwFozt3OYzDVBxOjrfluoVKA/F3g0Awv9U6H+OiP+rRtwlBnvjp9sDg9FyNBRzDCUSRY4YirWQ0qeCd6vLURwotJF6Dyk//OVE3lcgU1OhTSDD+seF28APbjbcCeNdA3QwY2Mp6ySYcoHEiXdgn1YeITA4x4CCXyySSy/J8MyFlPD4QlHu6ZeP9XpOEiw4MKL4S8uwBgv6QX6c7PErIhhFlLchfQFUykXeNcH6TDqoMlZT4RvK3d3WshYhYdxsWRUuZD5s6U2hm8AUFjVbpH6qwlJRyGMxh0EBLiRdNQ/FfoLMD8rODAILmU/m/mhx3LQ+HOBAAAz478/wT5JhAcdSw/IsEnN71vsF07fkS3mH7QouG1V5WxOaIauDjdI+VDQ51I7HNoCfFFimHr391jVCNFidaDxE0hypF6S3lBIVVLhXxqrmhhs0fw95IZhdeWpJSHlvDnlNXK2fOLGAuwz3T1nAQhMGd1jAEETFno8LXY3+6kmJp3Bc9sjgkSU1+vBCAaek1MQbFVZ8BE8YWfBiOHXSIAZPmAaSCyxOjLmdszuxai0yjHHMB4hnBA4iw0luf7+lTVC+xyJJvCR0u9GYl6xPheQM2XCu1FTEKk4L71sdtXiGmIVWELPAXXjVCQBrqEjhE5vPHLc/LrwJXPCIRXZshhR7SBgH8kvwfia5XtFNsG3Yela1awVUlEyDcgHhDXAlwJrLLXJieXDJBQIBmpGIMURtw74TgQncAf6FyH4bdyQbAD64sKTGZ/QEtn/cssSY7beew7Jr2e9H/MkDRQ9B/Y8LR4u8wkeJIJIeJIPDlnOQevJtgNJhchS5wMfkwidzH8FKD4GP3m41FVIhSq5aLjC90gTYvtGkI1wUASvZgkWQWYKvpNSk3nAyqJ0ivzI+FbhPIWm/Rj8q5RGOfLEcRyZMSQPUc2CiFKvjcweIa/ee6wkW0MPqkQ+HMZpon6rQFNZsxiUlSDKgJbg0YLs2trPNcOFMZEBEFwlEsntKTURSye/yLGrJXKOHTZ7KYMFZeA5sDtxR4UmRsn7zkpx0DtENv8+xt6+9KrhAn1PeO/GG4AKTKSX3ogrBlpDLpIJc4cA4Ffw7z0ksJyT93B0rJXJ1opyPmEcRbn+dk3DWmCsKEiFK+69WMxPRWWwi7HjsD8KyKVzo/ZPzElFHycwqFzgJTdy7LbIyiwbTG50okXTz4SeRL0/LAUpOr7Q5LAMatYAFyPGMJ4D11Lsihc5Q4Rp6RZ9irJVGmv/AUkpoUxFcUsEkmL1UwGKo0PlsJAgucQrERFnm9Z/Ki0ShrSzs5Z1Xq4n0qWBByv+zaC1XFij0lWY8U2HWEKd99WQR04jYmF7RpHp0GqU4je6wpaawPn0MG+ULvefzKDYbJX6wPJGaPQDGEU2TV+lTq/8sGo5w2wcoJksORm5NgY02iTVZ1uQCjwiUyB7kz8l4BJagQkvQAWIJKniV0HqxxMVFg+HWLCDo/3yEU+xJfbb7cQ4X4DjSTpTBppSUAHrOIC7ZRgFtQBkjyJi2Kclo5QIDg5k+vfxmC/8UIh6/llgi5YYReouzr5zcWOiocHsfdgM+uHEWaB6J5j9y0fpUSmSBVVEpd3dVGTlw/ionhy6yKqQBFAewKlZDsqqbVq/EQQ+sil0bsqqg5QJWRYVkSjPvUkE8IhzAquhSsiq6SFgVEzBZVYuSJ5E7QaZ4eLiiiBeoMBm1GevheIE8SRbOkOcGaCasOVJwyLMKpZ4wJRqP0AvlsBHkSSowvQK9KhR3IJHtwLYSw1wayEBYExzAsWFTDANGCj1dUrPPvOARpBvx1WXnKY/FTlbAHVNZOXNZcN57/lSBZEGakRQHyWMLXYCptwTgosI8S/ltveaBC47M/9xqdphYYH5f9CZaIiiUpAE0FJt3lDiRZgGHxwSYgnLWVG4NLNu2armSQdwIk023QB0WP9JqKviIAN+2xeS1gke4MmKZoMOSR8geLm9KTUdPimbigNgrYCGbkdVmWtxeIKWPRZYIkG4emIcwgPjcN4JeofREqMC0QdMQnQNpGsLw/7Np6PNsAtsaHllFITDwvqD2ofQj1HwcNy8YbCAEHMWjPoUcEe8PKKgQKCgugbfZPYQMFGz0P6cH7Mfnlnai3BVdFljV7AVexCya59eL8H05HGx+kRYknPkdsluCHE45PcrL+0hodaUX+fZVdZ3PfIBPEA408AUgqo4chvlihG8uiHICMvoo+0FtnNLpg6oRlaQH+dq20nxvBsJ2h/UZ4fCK9dkPynRnrE9yfUWh03zCgIrKw2GEvB2hku/ThWyeaZqUuYXEk8DGeu6QTA+qb9g3Al/oIOwLSJVzq4/b2sNugQKLOp+ovqJIACzadqsoo168Uc6owlx4BMAHGbB+FAKOEJpgy+jCrGE05aJ7c4/VSJN8O24bD5y3shLGJDo0FXoX1of7RUHeZPGIR9GZgShqST40C/yzM4kN0lZf67OeEvgSvbQF7cUyqslXua+/PbgXs2NfjAvZFxXZzsE6IcIyULgdzQYDD+CICQQ34ngWTlNhNO8Z5aTXSH6H8UVgJd5+ABZAu3xJjZcDm182vtqEMGWIw/YFWFeiKKwFWGN7dBx+BuC/CZPn0E1gIksZEyx16Cp1tz4V/JGjLMXBdDWo4HIjLyeMSYmYHpB5hVIKJaJXWa7hby0KZg6TGhEJYTIhxqBQIlS4daJgjzhZo3WMDxViD7RoAFHf+TzKXlG4JDncolGDvJKK8N7Gs0sG6kUGI1WkJBsmDNoG3jFYyWa5letFETQ+FaYjaRiBywEau/AItkXA8CIbubIttoe5LSKXu0Fj801RmL1kW1S4CZ+UkYochKmQrN/T74JFzQkaRjB4sJudsyPRTrikgBDxy0Uku2UI3UjUuMNB4WIlWzA9Iqhk/ATBbeEjqEicPMojO2RLxwOQNj4VWE/5JDWQLEsfYMbkMJFHT6Mxtwc7b2y4REl6bHQjn4aZlWGs9mhUTBWUXIaNOoOmDMkFf4j1qZCbwI0FOJjE44LO79o6imw4jLbAMXzAijMwKV0SdGlAQaRLI8UMBgfhPkAcTA66klSwXH4VSUTkKweooDxGMmcVoV9TittiaWQzsiLOktUcyR+oj/MZyKLw2IvbnJ/h3vpLkTDjED8P+CwBEuhUOFUHHDwJCaFvTPzcKexgQB+zkD9zYe7xIkFkp4iCUUw202gGL/fCTIv3WTE74wHO3ApIdZVDBOpFWBMjsFIYz1HmwzGTEIOJBRWXjoFjkguk2tGwfD+lKkQSpaew0v/3aQZRG5xmGLqMcsE4qSNZMvAdhC7XTIzDfxKx4gZim3QSHvhXpxnwfdC334RgymmGh0UUPcd+t0Ac2/tLgQ//TdxZFNpIeczgwyajOMLUogDgME5NOfuYUS9ejfK5ysTnNgou8Osq78ir1NZp8rCeay2+3CWIBKW1ovBULHfwLMBHKGUOKpyUR3l5CysPX8s5KNUC0Hp01rjyAhCB+0XhuRkyHzmnLBQdxvmNURP2+Q0Y0ZovjEAUVkY2F8WrVCQwUCtoA/QQcBYgmhk2tDuoqZE2ECspbUiJZPesKIhKgKE7e8SvMo3iFfPh6okGRHAxssNiEKvFgg65EHhqHqpXLL+WzhRXswVEHgkgjkJRbc1kQkCTf3bk7EIkGV3okvmw0wA5vyE/Ww2qCtzm4QvgYMPjJSGDvvE8FJdmANXa4AITL90pzIAYYLkDoMG3TlmNjy9kYbIoNjrgyFbk0NLHp8Q6skR5/afnsRa0J/kGHqZJnYW4MJMf3QtgMm6vKEyE0vungmlXWcY3f5B/SvuB5Zh8lytCgRiNI88JmKifSKEbVNi1kDvwmUPKPyWJuFxY8/N6QL4+XPVW0ARMnbQENu+Fi2gZsTHGcwNhD6dK3AF0k2HqNWiU5LGFtpOhgkc+xuR9uLCvwIHbYSPs4pcOLsB/cPdHkozkFIMQD/MQANgodN1eAfCyCy5DU6n/Ag==(/figma)--&gt;&quot; style=&quot;font-size: 10px;&quot;&gt;&lt;/span&gt;&lt;span style=&quot;font-size: 10px;&quot;&gt;Profile and Evaluations&lt;/span&gt;" style="shape=parallelogram;perimeter=parallelogramPerimeter;whiteSpace=wrap;html=1;fixedSize=1;fontSize=10;align=center;verticalAlign=middle;" parent="1" vertex="1">
          <mxGeometry x="60" y="1280" width="160" height="40" as="geometry" />
        </mxCell>
        <mxCell id="94V-WA4Xhz-vZ9kCUlkt-68" style="edgeStyle=orthogonalEdgeStyle;rounded=0;orthogonalLoop=1;jettySize=auto;html=1;fontSize=10;align=center;verticalAlign=middle;" parent="1" source="94V-WA4Xhz-vZ9kCUlkt-57" edge="1">
          <mxGeometry relative="1" as="geometry">
            <mxPoint x="140" y="1260" as="targetPoint" />
          </mxGeometry>
        </mxCell>
        <mxCell id="94V-WA4Xhz-vZ9kCUlkt-57" value="DashB" style="ellipse;whiteSpace=wrap;html=1;aspect=fixed;fontSize=10;align=center;verticalAlign=middle;" parent="1" vertex="1">
          <mxGeometry x="240" y="1240" width="40" height="40" as="geometry" />
        </mxCell>
        <mxCell id="94V-WA4Xhz-vZ9kCUlkt-59" value="DashB" style="ellipse;whiteSpace=wrap;html=1;aspect=fixed;fontSize=10;align=center;verticalAlign=middle;" parent="1" vertex="1">
          <mxGeometry x="520" y="1540" width="40" height="40" as="geometry" />
        </mxCell>
        <mxCell id="2Hu3Q1aD2By5WsPDF8wi-3" style="edgeStyle=orthogonalEdgeStyle;rounded=0;orthogonalLoop=1;jettySize=auto;html=1;" parent="1" source="94V-WA4Xhz-vZ9kCUlkt-62" target="2Hu3Q1aD2By5WsPDF8wi-2" edge="1">
          <mxGeometry relative="1" as="geometry" />
        </mxCell>
        <mxCell id="94V-WA4Xhz-vZ9kCUlkt-62" value="Logout" style="rounded=0;whiteSpace=wrap;html=1;fontSize=10;align=center;verticalAlign=middle;" parent="1" vertex="1">
          <mxGeometry x="80" y="1680" width="120" height="40" as="geometry" />
        </mxCell>
        <mxCell id="94V-WA4Xhz-vZ9kCUlkt-77" style="edgeStyle=orthogonalEdgeStyle;rounded=0;orthogonalLoop=1;jettySize=auto;html=1;fontSize=10;align=center;verticalAlign=middle;" parent="1" source="94V-WA4Xhz-vZ9kCUlkt-71" target="94V-WA4Xhz-vZ9kCUlkt-76" edge="1">
          <mxGeometry relative="1" as="geometry" />
        </mxCell>
        <mxCell id="94V-WA4Xhz-vZ9kCUlkt-81" value="No" style="edgeLabel;html=1;align=center;verticalAlign=middle;resizable=0;points=[];fontSize=10;" parent="94V-WA4Xhz-vZ9kCUlkt-77" vertex="1" connectable="0">
          <mxGeometry x="-0.2343" y="-1" relative="1" as="geometry">
            <mxPoint x="1" y="-10" as="offset" />
          </mxGeometry>
        </mxCell>
        <mxCell id="AESjJVJeeAhlLlY_9NK1-106" style="edgeStyle=orthogonalEdgeStyle;rounded=0;orthogonalLoop=1;jettySize=auto;html=1;fontSize=10;align=center;verticalAlign=middle;" parent="1" source="94V-WA4Xhz-vZ9kCUlkt-71" target="AESjJVJeeAhlLlY_9NK1-105" edge="1">
          <mxGeometry relative="1" as="geometry" />
        </mxCell>
        <mxCell id="AESjJVJeeAhlLlY_9NK1-107" value="Yes" style="edgeLabel;html=1;align=center;verticalAlign=middle;resizable=0;points=[];fontSize=10;" parent="AESjJVJeeAhlLlY_9NK1-106" vertex="1" connectable="0">
          <mxGeometry x="-0.5506" y="1" relative="1" as="geometry">
            <mxPoint x="2" y="1" as="offset" />
          </mxGeometry>
        </mxCell>
        <mxCell id="94V-WA4Xhz-vZ9kCUlkt-71" value="Verified" style="rhombus;whiteSpace=wrap;html=1;fontSize=10;align=center;verticalAlign=middle;" parent="1" vertex="1">
          <mxGeometry x="80" y="600" width="120" height="80" as="geometry" />
        </mxCell>
        <mxCell id="AESjJVJeeAhlLlY_9NK1-76" style="edgeStyle=orthogonalEdgeStyle;rounded=0;orthogonalLoop=1;jettySize=auto;html=1;fontSize=10;align=center;verticalAlign=middle;" parent="1" edge="1">
          <mxGeometry relative="1" as="geometry">
            <mxPoint x="139" y="260" as="targetPoint" />
            <Array as="points">
              <mxPoint x="40" y="780" />
              <mxPoint x="40" y="260" />
            </Array>
            <mxPoint x="69" y="780" as="sourcePoint" />
          </mxGeometry>
        </mxCell>
        <mxCell id="94V-WA4Xhz-vZ9kCUlkt-76" value="Account on queue&lt;br style=&quot;font-size: 10px;&quot;&gt;for verification." style="shape=parallelogram;perimeter=parallelogramPerimeter;whiteSpace=wrap;html=1;fixedSize=1;fontSize=10;align=center;verticalAlign=middle;" parent="1" vertex="1">
          <mxGeometry x="60" y="760" width="160" height="40" as="geometry" />
        </mxCell>
        <mxCell id="AESjJVJeeAhlLlY_9NK1-109" value="" style="edgeStyle=orthogonalEdgeStyle;rounded=0;orthogonalLoop=1;jettySize=auto;html=1;fontSize=10;" parent="1" source="94V-WA4Xhz-vZ9kCUlkt-109" target="AESjJVJeeAhlLlY_9NK1-108" edge="1">
          <mxGeometry relative="1" as="geometry" />
        </mxCell>
        <mxCell id="94V-WA4Xhz-vZ9kCUlkt-109" value="Register" style="rounded=0;whiteSpace=wrap;html=1;fontSize=10;align=center;verticalAlign=middle;" parent="1" vertex="1">
          <mxGeometry x="80" y="440" width="120" height="40" as="geometry" />
        </mxCell>
        <mxCell id="2Hu3Q1aD2By5WsPDF8wi-1" style="edgeStyle=orthogonalEdgeStyle;rounded=0;orthogonalLoop=1;jettySize=auto;html=1;" parent="1" source="94V-WA4Xhz-vZ9kCUlkt-150" target="94V-WA4Xhz-vZ9kCUlkt-53" edge="1">
          <mxGeometry relative="1" as="geometry" />
        </mxCell>
        <mxCell id="94V-WA4Xhz-vZ9kCUlkt-150" value="Logged In" style="shape=offPageConnector;whiteSpace=wrap;html=1;size=0.25;fontSize=10;align=center;verticalAlign=middle;" parent="1" vertex="1">
          <mxGeometry x="100" y="1160" width="80" height="80" as="geometry" />
        </mxCell>
        <mxCell id="AESjJVJeeAhlLlY_9NK1-85" style="edgeStyle=orthogonalEdgeStyle;rounded=0;orthogonalLoop=1;jettySize=auto;html=1;fontSize=10;align=center;verticalAlign=middle;" parent="1" source="AESjJVJeeAhlLlY_9NK1-81" target="AESjJVJeeAhlLlY_9NK1-84" edge="1">
          <mxGeometry relative="1" as="geometry" />
        </mxCell>
        <mxCell id="AESjJVJeeAhlLlY_9NK1-86" value="Yes" style="edgeLabel;html=1;align=center;verticalAlign=middle;resizable=0;points=[];fontSize=10;" parent="AESjJVJeeAhlLlY_9NK1-85" vertex="1" connectable="0">
          <mxGeometry x="-0.845" y="-1" relative="1" as="geometry">
            <mxPoint x="14" y="-1" as="offset" />
          </mxGeometry>
        </mxCell>
        <mxCell id="AESjJVJeeAhlLlY_9NK1-88" style="edgeStyle=orthogonalEdgeStyle;rounded=0;orthogonalLoop=1;jettySize=auto;html=1;fontSize=10;align=center;verticalAlign=middle;" parent="1" source="AESjJVJeeAhlLlY_9NK1-81" target="AESjJVJeeAhlLlY_9NK1-87" edge="1">
          <mxGeometry relative="1" as="geometry" />
        </mxCell>
        <mxCell id="AESjJVJeeAhlLlY_9NK1-89" value="No" style="edgeLabel;html=1;align=center;verticalAlign=middle;resizable=0;points=[];fontSize=10;" parent="AESjJVJeeAhlLlY_9NK1-88" vertex="1" connectable="0">
          <mxGeometry x="-0.7315" y="-1" relative="1" as="geometry">
            <mxPoint x="1" y="9" as="offset" />
          </mxGeometry>
        </mxCell>
        <mxCell id="AESjJVJeeAhlLlY_9NK1-81" value="Login" style="rhombus;whiteSpace=wrap;html=1;fontSize=10;align=center;verticalAlign=middle;" parent="1" vertex="1">
          <mxGeometry x="320" y="280" width="120" height="80" as="geometry" />
        </mxCell>
        <mxCell id="AESjJVJeeAhlLlY_9NK1-84" value="Logged In" style="shape=offPageConnector;whiteSpace=wrap;html=1;size=0.25;fontSize=10;align=center;verticalAlign=middle;" parent="1" vertex="1">
          <mxGeometry x="520" y="280" width="80" height="80" as="geometry" />
        </mxCell>
        <mxCell id="AESjJVJeeAhlLlY_9NK1-91" style="edgeStyle=orthogonalEdgeStyle;rounded=0;orthogonalLoop=1;jettySize=auto;html=1;fontSize=10;align=center;verticalAlign=middle;" parent="1" source="AESjJVJeeAhlLlY_9NK1-87" target="AESjJVJeeAhlLlY_9NK1-90" edge="1">
          <mxGeometry relative="1" as="geometry" />
        </mxCell>
        <mxCell id="AESjJVJeeAhlLlY_9NK1-92" value="No" style="edgeLabel;html=1;align=center;verticalAlign=middle;resizable=0;points=[];fontSize=10;" parent="AESjJVJeeAhlLlY_9NK1-91" vertex="1" connectable="0">
          <mxGeometry x="-0.7205" y="-1" relative="1" as="geometry">
            <mxPoint x="1" y="9" as="offset" />
          </mxGeometry>
        </mxCell>
        <mxCell id="AESjJVJeeAhlLlY_9NK1-94" style="edgeStyle=orthogonalEdgeStyle;rounded=0;orthogonalLoop=1;jettySize=auto;html=1;fontSize=10;align=center;verticalAlign=middle;" parent="1" source="AESjJVJeeAhlLlY_9NK1-87" target="AESjJVJeeAhlLlY_9NK1-98" edge="1">
          <mxGeometry relative="1" as="geometry">
            <mxPoint x="520" y="480" as="targetPoint" />
          </mxGeometry>
        </mxCell>
        <mxCell id="AESjJVJeeAhlLlY_9NK1-95" value="Yes" style="edgeLabel;html=1;align=center;verticalAlign=middle;resizable=0;points=[];fontSize=10;" parent="AESjJVJeeAhlLlY_9NK1-94" vertex="1" connectable="0">
          <mxGeometry x="-0.5019" relative="1" as="geometry">
            <mxPoint as="offset" />
          </mxGeometry>
        </mxCell>
        <mxCell id="AESjJVJeeAhlLlY_9NK1-87" value="Forgot password" style="rhombus;whiteSpace=wrap;html=1;fontSize=10;align=center;verticalAlign=middle;" parent="1" vertex="1">
          <mxGeometry x="320" y="440" width="120" height="80" as="geometry" />
        </mxCell>
        <mxCell id="AESjJVJeeAhlLlY_9NK1-90" value="Login" style="ellipse;whiteSpace=wrap;html=1;aspect=fixed;fontSize=10;align=center;verticalAlign=middle;" parent="1" vertex="1">
          <mxGeometry x="360" y="600" width="40" height="40" as="geometry" />
        </mxCell>
        <mxCell id="AESjJVJeeAhlLlY_9NK1-101" style="edgeStyle=orthogonalEdgeStyle;rounded=0;orthogonalLoop=1;jettySize=auto;html=1;fontSize=10;align=center;verticalAlign=middle;" parent="1" source="AESjJVJeeAhlLlY_9NK1-98" target="AESjJVJeeAhlLlY_9NK1-99" edge="1">
          <mxGeometry relative="1" as="geometry" />
        </mxCell>
        <mxCell id="AESjJVJeeAhlLlY_9NK1-98" value="Submit Reset&lt;br style=&quot;font-size: 10px;&quot;&gt;Request Form" style="rounded=0;whiteSpace=wrap;html=1;fontSize=10;align=center;verticalAlign=middle;" parent="1" vertex="1">
          <mxGeometry x="520" y="460" width="120" height="40" as="geometry" />
        </mxCell>
        <mxCell id="AESjJVJeeAhlLlY_9NK1-102" style="edgeStyle=orthogonalEdgeStyle;rounded=0;orthogonalLoop=1;jettySize=auto;html=1;fontSize=10;align=center;verticalAlign=middle;" parent="1" source="AESjJVJeeAhlLlY_9NK1-99" target="AESjJVJeeAhlLlY_9NK1-100" edge="1">
          <mxGeometry relative="1" as="geometry" />
        </mxCell>
        <mxCell id="AESjJVJeeAhlLlY_9NK1-99" value="Reset Password" style="rounded=0;whiteSpace=wrap;html=1;fontSize=10;align=center;verticalAlign=middle;" parent="1" vertex="1">
          <mxGeometry x="520" y="560" width="120" height="40" as="geometry" />
        </mxCell>
        <mxCell id="AESjJVJeeAhlLlY_9NK1-100" value="Login" style="ellipse;whiteSpace=wrap;html=1;aspect=fixed;fontSize=10;align=center;verticalAlign=middle;" parent="1" vertex="1">
          <mxGeometry x="560" y="640" width="40" height="40" as="geometry" />
        </mxCell>
        <mxCell id="NTnpWFvQ_PIeBgeD3V9H-1" style="edgeStyle=orthogonalEdgeStyle;rounded=0;orthogonalLoop=1;jettySize=auto;html=1;fontSize=10;" parent="1" source="AESjJVJeeAhlLlY_9NK1-103" edge="1">
          <mxGeometry relative="1" as="geometry">
            <mxPoint x="300" y="320" as="targetPoint" />
          </mxGeometry>
        </mxCell>
        <mxCell id="AESjJVJeeAhlLlY_9NK1-103" value="Login" style="ellipse;whiteSpace=wrap;html=1;aspect=fixed;fontSize=10;align=center;verticalAlign=middle;" parent="1" vertex="1">
          <mxGeometry x="280" y="240" width="40" height="40" as="geometry" />
        </mxCell>
        <mxCell id="AESjJVJeeAhlLlY_9NK1-105" value="Login" style="ellipse;whiteSpace=wrap;html=1;aspect=fixed;fontSize=10;align=center;verticalAlign=middle;" parent="1" vertex="1">
          <mxGeometry x="280" y="620" width="40" height="40" as="geometry" />
        </mxCell>
        <mxCell id="AESjJVJeeAhlLlY_9NK1-110" value="" style="edgeStyle=orthogonalEdgeStyle;rounded=0;orthogonalLoop=1;jettySize=auto;html=1;fontSize=10;" parent="1" source="AESjJVJeeAhlLlY_9NK1-108" target="94V-WA4Xhz-vZ9kCUlkt-71" edge="1">
          <mxGeometry relative="1" as="geometry" />
        </mxCell>
        <mxCell id="AESjJVJeeAhlLlY_9NK1-108" value="Admin Verification" style="rounded=0;whiteSpace=wrap;html=1;fontSize=10;align=center;verticalAlign=middle;" parent="1" vertex="1">
          <mxGeometry x="80" y="520" width="120" height="40" as="geometry" />
        </mxCell>
        <mxCell id="jLtNxDhiQ_q_oaKfSS_k-1" value="DashB" style="ellipse;whiteSpace=wrap;html=1;aspect=fixed;fontSize=10;align=center;verticalAlign=middle;" parent="1" vertex="1">
          <mxGeometry x="680" y="1480" width="40" height="40" as="geometry" />
        </mxCell>
        <mxCell id="2Hu3Q1aD2By5WsPDF8wi-2" value="Logged Out" style="shape=offPageConnector;whiteSpace=wrap;html=1;size=0.25;fontSize=10;align=center;verticalAlign=middle;" parent="1" vertex="1">
          <mxGeometry x="240" y="1660" width="80" height="80" as="geometry" />
        </mxCell>
        <mxCell id="2Hu3Q1aD2By5WsPDF8wi-5" style="edgeStyle=orthogonalEdgeStyle;rounded=0;orthogonalLoop=1;jettySize=auto;html=1;" parent="1" source="2Hu3Q1aD2By5WsPDF8wi-4" edge="1">
          <mxGeometry relative="1" as="geometry">
            <mxPoint x="139.9999999999999" y="180" as="targetPoint" />
            <Array as="points">
              <mxPoint x="240" y="160" />
              <mxPoint x="240" y="180" />
            </Array>
          </mxGeometry>
        </mxCell>
        <mxCell id="2Hu3Q1aD2By5WsPDF8wi-4" value="Logged Out" style="shape=offPageConnector;whiteSpace=wrap;html=1;size=0.25;fontSize=10;align=center;verticalAlign=middle;" parent="1" vertex="1">
          <mxGeometry x="260" y="120" width="80" height="80" as="geometry" />
        </mxCell>
      </root>
    </mxGraphModel>
  </diagram>
  <diagram name="Admin POV" id="ZTIg-Fu03RtM4pFfhU6b">
    <mxGraphModel dx="872" dy="491" grid="1" gridSize="10" guides="1" tooltips="1" connect="1" arrows="1" fold="1" page="1" pageScale="1" pageWidth="850" pageHeight="1100" math="0" shadow="0">
      <root>
        <mxCell id="YVaSc3uNF6STMpNfNDtI-0" />
        <mxCell id="YVaSc3uNF6STMpNfNDtI-1" parent="YVaSc3uNF6STMpNfNDtI-0" />
        <mxCell id="7U7tdobOxjw5vfw7kYbd-120" style="edgeStyle=none;html=1;fontSize=10;" parent="YVaSc3uNF6STMpNfNDtI-1" source="7U7tdobOxjw5vfw7kYbd-121" target="7U7tdobOxjw5vfw7kYbd-123" edge="1">
          <mxGeometry relative="1" as="geometry" />
        </mxCell>
        <mxCell id="7U7tdobOxjw5vfw7kYbd-121" value="Start" style="rounded=1;whiteSpace=wrap;html=1;arcSize=50;fontSize=10;" parent="YVaSc3uNF6STMpNfNDtI-1" vertex="1">
          <mxGeometry x="120" y="40" width="120" height="40" as="geometry" />
        </mxCell>
        <mxCell id="7U7tdobOxjw5vfw7kYbd-122" style="edgeStyle=orthogonalEdgeStyle;rounded=0;orthogonalLoop=1;jettySize=auto;html=1;fontSize=10;" parent="YVaSc3uNF6STMpNfNDtI-1" source="7U7tdobOxjw5vfw7kYbd-123" target="7U7tdobOxjw5vfw7kYbd-125" edge="1">
          <mxGeometry relative="1" as="geometry">
            <mxPoint x="180" y="240" as="targetPoint" />
          </mxGeometry>
        </mxCell>
        <mxCell id="7U7tdobOxjw5vfw7kYbd-123" value="Colegio de Montalban&lt;br style=&quot;font-size: 10px;&quot;&gt;&amp;nbsp;Student to Student&lt;br style=&quot;font-size: 10px;&quot;&gt;Evaluation System" style="shape=hexagon;perimeter=hexagonPerimeter2;whiteSpace=wrap;html=1;fixedSize=1;fontSize=10;" parent="YVaSc3uNF6STMpNfNDtI-1" vertex="1">
          <mxGeometry x="100" y="120" width="160" height="40" as="geometry" />
        </mxCell>
        <mxCell id="k9WebCVxCoJ_a3Yp9zaf-0" style="edgeStyle=orthogonalEdgeStyle;rounded=0;orthogonalLoop=1;jettySize=auto;html=1;entryX=0.5;entryY=0;entryDx=0;entryDy=0;" parent="YVaSc3uNF6STMpNfNDtI-1" source="7U7tdobOxjw5vfw7kYbd-125" target="7U7tdobOxjw5vfw7kYbd-127" edge="1">
          <mxGeometry relative="1" as="geometry" />
        </mxCell>
        <mxCell id="7U7tdobOxjw5vfw7kYbd-125" value="Login" style="rounded=0;whiteSpace=wrap;html=1;fontSize=10;" parent="YVaSc3uNF6STMpNfNDtI-1" vertex="1">
          <mxGeometry x="120" y="200" width="120" height="40" as="geometry" />
        </mxCell>
        <mxCell id="7U7tdobOxjw5vfw7kYbd-126" style="edgeStyle=orthogonalEdgeStyle;rounded=0;orthogonalLoop=1;jettySize=auto;html=1;fontSize=10;" parent="YVaSc3uNF6STMpNfNDtI-1" source="7U7tdobOxjw5vfw7kYbd-127" target="7U7tdobOxjw5vfw7kYbd-134" edge="1">
          <mxGeometry relative="1" as="geometry" />
        </mxCell>
        <mxCell id="7U7tdobOxjw5vfw7kYbd-127" value="See All Evaluations" style="shape=parallelogram;perimeter=parallelogramPerimeter;whiteSpace=wrap;html=1;fixedSize=1;fontSize=10;" parent="YVaSc3uNF6STMpNfNDtI-1" vertex="1">
          <mxGeometry x="120" y="400" width="120" height="40" as="geometry" />
        </mxCell>
        <mxCell id="7U7tdobOxjw5vfw7kYbd-130" style="edgeStyle=orthogonalEdgeStyle;rounded=0;orthogonalLoop=1;jettySize=auto;html=1;fontSize=10;" parent="YVaSc3uNF6STMpNfNDtI-1" source="7U7tdobOxjw5vfw7kYbd-134" target="7U7tdobOxjw5vfw7kYbd-139" edge="1">
          <mxGeometry relative="1" as="geometry" />
        </mxCell>
        <mxCell id="7U7tdobOxjw5vfw7kYbd-131" value="No" style="edgeLabel;html=1;align=center;verticalAlign=middle;resizable=0;points=[];fontSize=10;" parent="7U7tdobOxjw5vfw7kYbd-130" vertex="1" connectable="0">
          <mxGeometry x="-0.658" y="1" relative="1" as="geometry">
            <mxPoint x="-1" y="6" as="offset" />
          </mxGeometry>
        </mxCell>
        <mxCell id="7U7tdobOxjw5vfw7kYbd-309" style="edgeStyle=orthogonalEdgeStyle;rounded=0;orthogonalLoop=1;jettySize=auto;html=1;fontSize=10;" parent="YVaSc3uNF6STMpNfNDtI-1" source="7U7tdobOxjw5vfw7kYbd-134" target="7U7tdobOxjw5vfw7kYbd-146" edge="1">
          <mxGeometry relative="1" as="geometry">
            <Array as="points">
              <mxPoint x="300" y="520" />
              <mxPoint x="300" y="220" />
            </Array>
          </mxGeometry>
        </mxCell>
        <mxCell id="7U7tdobOxjw5vfw7kYbd-314" value="Yes" style="edgeLabel;html=1;align=center;verticalAlign=middle;resizable=0;points=[];fontSize=10;" parent="7U7tdobOxjw5vfw7kYbd-309" vertex="1" connectable="0">
          <mxGeometry x="-0.9692" y="2" relative="1" as="geometry">
            <mxPoint x="13" y="2" as="offset" />
          </mxGeometry>
        </mxCell>
        <mxCell id="7U7tdobOxjw5vfw7kYbd-134" value="Registration Queue" style="rhombus;whiteSpace=wrap;html=1;fontSize=10;" parent="YVaSc3uNF6STMpNfNDtI-1" vertex="1">
          <mxGeometry x="120" y="480" width="120" height="80" as="geometry" />
        </mxCell>
        <mxCell id="7U7tdobOxjw5vfw7kYbd-135" style="edgeStyle=orthogonalEdgeStyle;rounded=0;orthogonalLoop=1;jettySize=auto;html=1;fontSize=10;" parent="YVaSc3uNF6STMpNfNDtI-1" source="7U7tdobOxjw5vfw7kYbd-139" target="7U7tdobOxjw5vfw7kYbd-144" edge="1">
          <mxGeometry relative="1" as="geometry" />
        </mxCell>
        <mxCell id="7U7tdobOxjw5vfw7kYbd-136" value="No" style="edgeLabel;html=1;align=center;verticalAlign=middle;resizable=0;points=[];fontSize=10;" parent="7U7tdobOxjw5vfw7kYbd-135" vertex="1" connectable="0">
          <mxGeometry x="-0.0317" y="2" relative="1" as="geometry">
            <mxPoint x="-2" y="-19" as="offset" />
          </mxGeometry>
        </mxCell>
        <mxCell id="7U7tdobOxjw5vfw7kYbd-137" style="edgeStyle=orthogonalEdgeStyle;rounded=0;orthogonalLoop=1;jettySize=auto;html=1;fontSize=10;" parent="YVaSc3uNF6STMpNfNDtI-1" source="7U7tdobOxjw5vfw7kYbd-139" target="7U7tdobOxjw5vfw7kYbd-155" edge="1">
          <mxGeometry relative="1" as="geometry" />
        </mxCell>
        <mxCell id="7U7tdobOxjw5vfw7kYbd-300" value="Yes" style="edgeLabel;html=1;align=center;verticalAlign=middle;resizable=0;points=[];fontSize=10;" parent="7U7tdobOxjw5vfw7kYbd-137" vertex="1" connectable="0">
          <mxGeometry x="-0.9018" y="-3" relative="1" as="geometry">
            <mxPoint x="15" y="-3" as="offset" />
          </mxGeometry>
        </mxCell>
        <mxCell id="7U7tdobOxjw5vfw7kYbd-139" value="All Students" style="rhombus;whiteSpace=wrap;html=1;fontSize=10;" parent="YVaSc3uNF6STMpNfNDtI-1" vertex="1">
          <mxGeometry x="120" y="640" width="120" height="80" as="geometry" />
        </mxCell>
        <mxCell id="7U7tdobOxjw5vfw7kYbd-140" style="edgeStyle=orthogonalEdgeStyle;rounded=0;orthogonalLoop=1;jettySize=auto;html=1;fontSize=10;" parent="YVaSc3uNF6STMpNfNDtI-1" source="7U7tdobOxjw5vfw7kYbd-144" target="7U7tdobOxjw5vfw7kYbd-157" edge="1">
          <mxGeometry relative="1" as="geometry" />
        </mxCell>
        <mxCell id="7U7tdobOxjw5vfw7kYbd-141" value="Yes" style="edgeLabel;html=1;align=center;verticalAlign=middle;resizable=0;points=[];fontSize=10;" parent="7U7tdobOxjw5vfw7kYbd-140" vertex="1" connectable="0">
          <mxGeometry x="-0.3708" y="-1" relative="1" as="geometry">
            <mxPoint x="-9" y="-1" as="offset" />
          </mxGeometry>
        </mxCell>
        <mxCell id="7U7tdobOxjw5vfw7kYbd-142" style="edgeStyle=orthogonalEdgeStyle;rounded=0;orthogonalLoop=1;jettySize=auto;html=1;fontSize=10;" parent="YVaSc3uNF6STMpNfNDtI-1" source="7U7tdobOxjw5vfw7kYbd-144" target="7U7tdobOxjw5vfw7kYbd-165" edge="1">
          <mxGeometry relative="1" as="geometry" />
        </mxCell>
        <mxCell id="7U7tdobOxjw5vfw7kYbd-143" value="No" style="edgeLabel;html=1;align=center;verticalAlign=middle;resizable=0;points=[];fontSize=10;" parent="7U7tdobOxjw5vfw7kYbd-142" vertex="1" connectable="0">
          <mxGeometry x="-0.6645" relative="1" as="geometry">
            <mxPoint y="7" as="offset" />
          </mxGeometry>
        </mxCell>
        <mxCell id="7U7tdobOxjw5vfw7kYbd-144" value="System Logs" style="rhombus;whiteSpace=wrap;html=1;fontSize=10;" parent="YVaSc3uNF6STMpNfNDtI-1" vertex="1">
          <mxGeometry x="120" y="800" width="120" height="80" as="geometry" />
        </mxCell>
        <mxCell id="7U7tdobOxjw5vfw7kYbd-145" style="edgeStyle=orthogonalEdgeStyle;rounded=0;orthogonalLoop=1;jettySize=auto;html=1;fontSize=10;" parent="YVaSc3uNF6STMpNfNDtI-1" source="7U7tdobOxjw5vfw7kYbd-146" target="7U7tdobOxjw5vfw7kYbd-151" edge="1">
          <mxGeometry relative="1" as="geometry">
            <mxPoint x="940" y="-410" as="targetPoint" />
          </mxGeometry>
        </mxCell>
        <mxCell id="7U7tdobOxjw5vfw7kYbd-146" value="All Students waiting&lt;br style=&quot;font-size: 10px;&quot;&gt;to be registered" style="shape=parallelogram;perimeter=parallelogramPerimeter;whiteSpace=wrap;html=1;fixedSize=1;fontSize=10;" parent="YVaSc3uNF6STMpNfNDtI-1" vertex="1">
          <mxGeometry x="360" y="200" width="120" height="40" as="geometry" />
        </mxCell>
        <mxCell id="7U7tdobOxjw5vfw7kYbd-147" style="edgeStyle=orthogonalEdgeStyle;rounded=0;orthogonalLoop=1;jettySize=auto;html=1;fontSize=10;" parent="YVaSc3uNF6STMpNfNDtI-1" source="7U7tdobOxjw5vfw7kYbd-151" target="7U7tdobOxjw5vfw7kYbd-163" edge="1">
          <mxGeometry relative="1" as="geometry" />
        </mxCell>
        <mxCell id="7U7tdobOxjw5vfw7kYbd-148" value="Yes" style="edgeLabel;html=1;align=center;verticalAlign=middle;resizable=0;points=[];fontSize=10;" parent="7U7tdobOxjw5vfw7kYbd-147" vertex="1" connectable="0">
          <mxGeometry x="-0.4" relative="1" as="geometry">
            <mxPoint x="-4" as="offset" />
          </mxGeometry>
        </mxCell>
        <mxCell id="7U7tdobOxjw5vfw7kYbd-149" style="edgeStyle=orthogonalEdgeStyle;rounded=0;orthogonalLoop=1;jettySize=auto;html=1;fontSize=10;" parent="YVaSc3uNF6STMpNfNDtI-1" source="7U7tdobOxjw5vfw7kYbd-151" target="7U7tdobOxjw5vfw7kYbd-175" edge="1">
          <mxGeometry relative="1" as="geometry" />
        </mxCell>
        <mxCell id="7U7tdobOxjw5vfw7kYbd-150" value="No" style="edgeLabel;html=1;align=center;verticalAlign=middle;resizable=0;points=[];fontSize=10;" parent="7U7tdobOxjw5vfw7kYbd-149" vertex="1" connectable="0">
          <mxGeometry x="-0.4576" y="4" relative="1" as="geometry">
            <mxPoint x="-4" y="-2" as="offset" />
          </mxGeometry>
        </mxCell>
        <mxCell id="7U7tdobOxjw5vfw7kYbd-151" value="Verify" style="rhombus;whiteSpace=wrap;html=1;fontSize=10;" parent="YVaSc3uNF6STMpNfNDtI-1" vertex="1">
          <mxGeometry x="360" y="280" width="120" height="80" as="geometry" />
        </mxCell>
        <mxCell id="7U7tdobOxjw5vfw7kYbd-152" style="edgeStyle=orthogonalEdgeStyle;rounded=0;orthogonalLoop=1;jettySize=auto;html=1;fontSize=10;" parent="YVaSc3uNF6STMpNfNDtI-1" source="7U7tdobOxjw5vfw7kYbd-153" target="7U7tdobOxjw5vfw7kYbd-178" edge="1">
          <mxGeometry relative="1" as="geometry">
            <mxPoint x="620" y="620" as="targetPoint" />
          </mxGeometry>
        </mxCell>
        <mxCell id="7U7tdobOxjw5vfw7kYbd-153" value="Ask for more information through GMAIL" style="rounded=0;whiteSpace=wrap;html=1;fontSize=10;" parent="YVaSc3uNF6STMpNfNDtI-1" vertex="1">
          <mxGeometry x="360" y="600" width="120" height="40" as="geometry" />
        </mxCell>
        <mxCell id="7U7tdobOxjw5vfw7kYbd-154" style="edgeStyle=orthogonalEdgeStyle;rounded=0;orthogonalLoop=1;jettySize=auto;html=1;fontSize=10;" parent="YVaSc3uNF6STMpNfNDtI-1" source="7U7tdobOxjw5vfw7kYbd-155" target="Y3yjcSWuSIzL9Yitiwzz-10" edge="1">
          <mxGeometry relative="1" as="geometry">
            <mxPoint x="479.9999999999998" y="680" as="targetPoint" />
          </mxGeometry>
        </mxCell>
        <mxCell id="7U7tdobOxjw5vfw7kYbd-155" value="All Students" style="shape=parallelogram;perimeter=parallelogramPerimeter;whiteSpace=wrap;html=1;fixedSize=1;fontSize=10;" parent="YVaSc3uNF6STMpNfNDtI-1" vertex="1">
          <mxGeometry x="320" y="660" width="120" height="40" as="geometry" />
        </mxCell>
        <mxCell id="7U7tdobOxjw5vfw7kYbd-156" style="edgeStyle=orthogonalEdgeStyle;rounded=0;orthogonalLoop=1;jettySize=auto;html=1;fontSize=10;" parent="YVaSc3uNF6STMpNfNDtI-1" source="7U7tdobOxjw5vfw7kYbd-157" target="7U7tdobOxjw5vfw7kYbd-159" edge="1">
          <mxGeometry relative="1" as="geometry" />
        </mxCell>
        <mxCell id="7U7tdobOxjw5vfw7kYbd-157" value="System Logs" style="shape=parallelogram;perimeter=parallelogramPerimeter;whiteSpace=wrap;html=1;fixedSize=1;fontSize=10;" parent="YVaSc3uNF6STMpNfNDtI-1" vertex="1">
          <mxGeometry x="320" y="820" width="120" height="40" as="geometry" />
        </mxCell>
        <mxCell id="7U7tdobOxjw5vfw7kYbd-158" style="edgeStyle=orthogonalEdgeStyle;rounded=0;orthogonalLoop=1;jettySize=auto;html=1;fontSize=10;" parent="YVaSc3uNF6STMpNfNDtI-1" source="7U7tdobOxjw5vfw7kYbd-159" target="7U7tdobOxjw5vfw7kYbd-160" edge="1">
          <mxGeometry relative="1" as="geometry" />
        </mxCell>
        <mxCell id="7U7tdobOxjw5vfw7kYbd-159" value="Generate Log File" style="shape=document;whiteSpace=wrap;html=1;boundedLbl=1;fontSize=10;size=0.25;" parent="YVaSc3uNF6STMpNfNDtI-1" vertex="1">
          <mxGeometry x="320" y="920" width="120" height="40" as="geometry" />
        </mxCell>
        <mxCell id="7U7tdobOxjw5vfw7kYbd-160" value="DashB" style="ellipse;whiteSpace=wrap;html=1;aspect=fixed;fontSize=10;" parent="YVaSc3uNF6STMpNfNDtI-1" vertex="1">
          <mxGeometry x="360" y="1000" width="40" height="40" as="geometry" />
        </mxCell>
        <mxCell id="k9WebCVxCoJ_a3Yp9zaf-1" style="edgeStyle=orthogonalEdgeStyle;rounded=0;orthogonalLoop=1;jettySize=auto;html=1;" parent="YVaSc3uNF6STMpNfNDtI-1" source="7U7tdobOxjw5vfw7kYbd-162" edge="1">
          <mxGeometry relative="1" as="geometry">
            <mxPoint x="180" y="260" as="targetPoint" />
          </mxGeometry>
        </mxCell>
        <mxCell id="7U7tdobOxjw5vfw7kYbd-162" value="DashB" style="ellipse;whiteSpace=wrap;html=1;aspect=fixed;fontSize=10;" parent="YVaSc3uNF6STMpNfNDtI-1" vertex="1">
          <mxGeometry x="40" y="240" width="40" height="40" as="geometry" />
        </mxCell>
        <mxCell id="7U7tdobOxjw5vfw7kYbd-163" value="DashB" style="ellipse;whiteSpace=wrap;html=1;aspect=fixed;fontSize=10;" parent="YVaSc3uNF6STMpNfNDtI-1" vertex="1">
          <mxGeometry x="560" y="300" width="40" height="40" as="geometry" />
        </mxCell>
        <mxCell id="7U7tdobOxjw5vfw7kYbd-164" style="edgeStyle=orthogonalEdgeStyle;rounded=0;orthogonalLoop=1;jettySize=auto;html=1;fontSize=10;" parent="YVaSc3uNF6STMpNfNDtI-1" source="7U7tdobOxjw5vfw7kYbd-165" target="7U7tdobOxjw5vfw7kYbd-166" edge="1">
          <mxGeometry relative="1" as="geometry" />
        </mxCell>
        <mxCell id="7U7tdobOxjw5vfw7kYbd-165" value="Logout" style="rounded=0;whiteSpace=wrap;html=1;fontSize=10;" parent="YVaSc3uNF6STMpNfNDtI-1" vertex="1">
          <mxGeometry x="120" y="960" width="120" height="40" as="geometry" />
        </mxCell>
        <mxCell id="7U7tdobOxjw5vfw7kYbd-166" value="End" style="rounded=1;whiteSpace=wrap;html=1;arcSize=50;fontSize=10;" parent="YVaSc3uNF6STMpNfNDtI-1" vertex="1">
          <mxGeometry x="120" y="1040" width="120" height="40" as="geometry" />
        </mxCell>
        <mxCell id="7U7tdobOxjw5vfw7kYbd-302" style="edgeStyle=orthogonalEdgeStyle;rounded=0;orthogonalLoop=1;jettySize=auto;html=1;fontSize=10;" parent="YVaSc3uNF6STMpNfNDtI-1" source="7U7tdobOxjw5vfw7kYbd-175" target="7U7tdobOxjw5vfw7kYbd-153" edge="1">
          <mxGeometry relative="1" as="geometry" />
        </mxCell>
        <mxCell id="7U7tdobOxjw5vfw7kYbd-315" value="No" style="edgeLabel;html=1;align=center;verticalAlign=middle;resizable=0;points=[];fontSize=10;" parent="7U7tdobOxjw5vfw7kYbd-302" vertex="1" connectable="0">
          <mxGeometry x="-0.7143" y="-1" relative="1" as="geometry">
            <mxPoint x="1" y="9" as="offset" />
          </mxGeometry>
        </mxCell>
        <mxCell id="7U7tdobOxjw5vfw7kYbd-303" style="edgeStyle=orthogonalEdgeStyle;rounded=0;orthogonalLoop=1;jettySize=auto;html=1;fontSize=10;" parent="YVaSc3uNF6STMpNfNDtI-1" source="7U7tdobOxjw5vfw7kYbd-175" target="7U7tdobOxjw5vfw7kYbd-177" edge="1">
          <mxGeometry relative="1" as="geometry" />
        </mxCell>
        <mxCell id="7U7tdobOxjw5vfw7kYbd-316" value="Yes" style="edgeLabel;html=1;align=center;verticalAlign=middle;resizable=0;points=[];fontSize=10;" parent="7U7tdobOxjw5vfw7kYbd-303" vertex="1" connectable="0">
          <mxGeometry x="-0.7786" y="-1" relative="1" as="geometry">
            <mxPoint x="11" y="-1" as="offset" />
          </mxGeometry>
        </mxCell>
        <mxCell id="7U7tdobOxjw5vfw7kYbd-175" value="Reject" style="rhombus;whiteSpace=wrap;html=1;fontSize=10;" parent="YVaSc3uNF6STMpNfNDtI-1" vertex="1">
          <mxGeometry x="360" y="440" width="120" height="80" as="geometry" />
        </mxCell>
        <mxCell id="tk6YuPXUifcpvrfjr_8y-1" style="edgeStyle=orthogonalEdgeStyle;rounded=0;orthogonalLoop=1;jettySize=auto;html=1;fontSize=10;" parent="YVaSc3uNF6STMpNfNDtI-1" source="7U7tdobOxjw5vfw7kYbd-177" target="tk6YuPXUifcpvrfjr_8y-0" edge="1">
          <mxGeometry relative="1" as="geometry" />
        </mxCell>
        <mxCell id="7U7tdobOxjw5vfw7kYbd-177" value="Delete Account" style="rounded=0;whiteSpace=wrap;html=1;fontSize=10;" parent="YVaSc3uNF6STMpNfNDtI-1" vertex="1">
          <mxGeometry x="560" y="460" width="120" height="40" as="geometry" />
        </mxCell>
        <mxCell id="7U7tdobOxjw5vfw7kYbd-178" value="DashB" style="ellipse;whiteSpace=wrap;html=1;aspect=fixed;fontSize=10;" parent="YVaSc3uNF6STMpNfNDtI-1" vertex="1">
          <mxGeometry x="520" y="600" width="40" height="40" as="geometry" />
        </mxCell>
        <mxCell id="tk6YuPXUifcpvrfjr_8y-0" value="DashB" style="ellipse;whiteSpace=wrap;html=1;aspect=fixed;fontSize=10;" parent="YVaSc3uNF6STMpNfNDtI-1" vertex="1">
          <mxGeometry x="720" y="460" width="40" height="40" as="geometry" />
        </mxCell>
        <mxCell id="jkeNsiQrBfgO2XLhiFYU-13" style="edgeStyle=orthogonalEdgeStyle;rounded=0;orthogonalLoop=1;jettySize=auto;html=1;fontSize=10;" parent="YVaSc3uNF6STMpNfNDtI-1" source="jkeNsiQrBfgO2XLhiFYU-14" target="jkeNsiQrBfgO2XLhiFYU-16" edge="1">
          <mxGeometry relative="1" as="geometry" />
        </mxCell>
        <mxCell id="jkeNsiQrBfgO2XLhiFYU-14" value="Select a Student" style="rounded=0;whiteSpace=wrap;html=1;fontSize=10;" parent="YVaSc3uNF6STMpNfNDtI-1" vertex="1">
          <mxGeometry x="80" y="1280" width="120" height="40" as="geometry" />
        </mxCell>
        <mxCell id="Y3yjcSWuSIzL9Yitiwzz-0" style="edgeStyle=orthogonalEdgeStyle;rounded=0;orthogonalLoop=1;jettySize=auto;html=1;" parent="YVaSc3uNF6STMpNfNDtI-1" source="jkeNsiQrBfgO2XLhiFYU-16" target="jkeNsiQrBfgO2XLhiFYU-18" edge="1">
          <mxGeometry relative="1" as="geometry" />
        </mxCell>
        <mxCell id="jkeNsiQrBfgO2XLhiFYU-16" value="Student Profile, Evaluations, Evaluated Students" style="shape=parallelogram;perimeter=parallelogramPerimeter;whiteSpace=wrap;html=1;fixedSize=1;fontSize=10;" parent="YVaSc3uNF6STMpNfNDtI-1" vertex="1">
          <mxGeometry x="60" y="1360" width="160" height="40" as="geometry" />
        </mxCell>
        <mxCell id="jkeNsiQrBfgO2XLhiFYU-17" style="edgeStyle=orthogonalEdgeStyle;rounded=0;orthogonalLoop=1;jettySize=auto;html=1;fontSize=10;" parent="YVaSc3uNF6STMpNfNDtI-1" source="jkeNsiQrBfgO2XLhiFYU-18" target="jkeNsiQrBfgO2XLhiFYU-21" edge="1">
          <mxGeometry relative="1" as="geometry" />
        </mxCell>
        <mxCell id="jkeNsiQrBfgO2XLhiFYU-18" value="Inspect Student" style="rounded=0;whiteSpace=wrap;html=1;fontSize=10;" parent="YVaSc3uNF6STMpNfNDtI-1" vertex="1">
          <mxGeometry x="80" y="1440" width="120" height="40" as="geometry" />
        </mxCell>
        <mxCell id="jkeNsiQrBfgO2XLhiFYU-19" style="edgeStyle=orthogonalEdgeStyle;rounded=0;orthogonalLoop=1;jettySize=auto;html=1;fontSize=10;" parent="YVaSc3uNF6STMpNfNDtI-1" source="jkeNsiQrBfgO2XLhiFYU-21" target="jkeNsiQrBfgO2XLhiFYU-22" edge="1">
          <mxGeometry relative="1" as="geometry" />
        </mxCell>
        <mxCell id="jkeNsiQrBfgO2XLhiFYU-20" value="Yes" style="edgeLabel;html=1;align=center;verticalAlign=middle;resizable=0;points=[];fontSize=10;" parent="jkeNsiQrBfgO2XLhiFYU-19" vertex="1" connectable="0">
          <mxGeometry x="-0.8032" y="1" relative="1" as="geometry">
            <mxPoint x="12" y="1" as="offset" />
          </mxGeometry>
        </mxCell>
        <mxCell id="Y3yjcSWuSIzL9Yitiwzz-1" style="edgeStyle=orthogonalEdgeStyle;rounded=0;orthogonalLoop=1;jettySize=auto;html=1;" parent="YVaSc3uNF6STMpNfNDtI-1" source="jkeNsiQrBfgO2XLhiFYU-21" target="jkeNsiQrBfgO2XLhiFYU-23" edge="1">
          <mxGeometry relative="1" as="geometry" />
        </mxCell>
        <mxCell id="Y3yjcSWuSIzL9Yitiwzz-2" value="No" style="edgeLabel;html=1;align=center;verticalAlign=middle;resizable=0;points=[];" parent="Y3yjcSWuSIzL9Yitiwzz-1" vertex="1" connectable="0">
          <mxGeometry x="-0.5387" relative="1" as="geometry">
            <mxPoint y="1" as="offset" />
          </mxGeometry>
        </mxCell>
        <mxCell id="jkeNsiQrBfgO2XLhiFYU-21" value="Generate&lt;br style=&quot;font-size: 10px;&quot;&gt;Statistical Report" style="rhombus;whiteSpace=wrap;html=1;fontSize=10;" parent="YVaSc3uNF6STMpNfNDtI-1" vertex="1">
          <mxGeometry x="80" y="1520" width="120" height="80" as="geometry" />
        </mxCell>
        <mxCell id="Y3yjcSWuSIzL9Yitiwzz-7" style="edgeStyle=orthogonalEdgeStyle;rounded=0;orthogonalLoop=1;jettySize=auto;html=1;" parent="YVaSc3uNF6STMpNfNDtI-1" source="jkeNsiQrBfgO2XLhiFYU-22" edge="1">
          <mxGeometry relative="1" as="geometry">
            <mxPoint x="139.9999999999999" y="1660" as="targetPoint" />
            <Array as="points">
              <mxPoint x="420" y="1560" />
              <mxPoint x="420" y="1660" />
            </Array>
          </mxGeometry>
        </mxCell>
        <mxCell id="jkeNsiQrBfgO2XLhiFYU-22" value="Generate&lt;br style=&quot;border-color: var(--border-color); font-size: 10px;&quot;&gt;Statistical Report" style="shape=document;whiteSpace=wrap;html=1;boundedLbl=1;fontSize=10;size=0.25;" parent="YVaSc3uNF6STMpNfNDtI-1" vertex="1">
          <mxGeometry x="280" y="1540" width="120" height="40" as="geometry" />
        </mxCell>
        <mxCell id="Y3yjcSWuSIzL9Yitiwzz-5" style="edgeStyle=orthogonalEdgeStyle;rounded=0;orthogonalLoop=1;jettySize=auto;html=1;" parent="YVaSc3uNF6STMpNfNDtI-1" source="jkeNsiQrBfgO2XLhiFYU-23" target="Y3yjcSWuSIzL9Yitiwzz-4" edge="1">
          <mxGeometry relative="1" as="geometry" />
        </mxCell>
        <mxCell id="Y3yjcSWuSIzL9Yitiwzz-8" value="Yes" style="edgeLabel;html=1;align=center;verticalAlign=middle;resizable=0;points=[];" parent="Y3yjcSWuSIzL9Yitiwzz-5" vertex="1" connectable="0">
          <mxGeometry x="-0.3625" y="3" relative="1" as="geometry">
            <mxPoint x="-6" y="3" as="offset" />
          </mxGeometry>
        </mxCell>
        <mxCell id="Y3yjcSWuSIzL9Yitiwzz-14" style="edgeStyle=orthogonalEdgeStyle;rounded=0;orthogonalLoop=1;jettySize=auto;html=1;" parent="YVaSc3uNF6STMpNfNDtI-1" source="jkeNsiQrBfgO2XLhiFYU-23" target="Y3yjcSWuSIzL9Yitiwzz-13" edge="1">
          <mxGeometry relative="1" as="geometry" />
        </mxCell>
        <mxCell id="Y3yjcSWuSIzL9Yitiwzz-15" value="No" style="edgeLabel;html=1;align=center;verticalAlign=middle;resizable=0;points=[];" parent="Y3yjcSWuSIzL9Yitiwzz-14" vertex="1" connectable="0">
          <mxGeometry x="-0.637" relative="1" as="geometry">
            <mxPoint y="6" as="offset" />
          </mxGeometry>
        </mxCell>
        <mxCell id="jkeNsiQrBfgO2XLhiFYU-23" value="Summon Student" style="rhombus;whiteSpace=wrap;html=1;fontSize=10;" parent="YVaSc3uNF6STMpNfNDtI-1" vertex="1">
          <mxGeometry x="80" y="1680" width="120" height="80" as="geometry" />
        </mxCell>
        <mxCell id="Y3yjcSWuSIzL9Yitiwzz-11" style="edgeStyle=orthogonalEdgeStyle;rounded=0;orthogonalLoop=1;jettySize=auto;html=1;" parent="YVaSc3uNF6STMpNfNDtI-1" source="7CjEFAIykMIFadbMCGal-0" target="jkeNsiQrBfgO2XLhiFYU-14" edge="1">
          <mxGeometry relative="1" as="geometry" />
        </mxCell>
        <mxCell id="7CjEFAIykMIFadbMCGal-0" value="All Students" style="shape=offPageConnector;whiteSpace=wrap;html=1;size=0.25;fontSize=10;align=center;verticalAlign=middle;" parent="YVaSc3uNF6STMpNfNDtI-1" vertex="1">
          <mxGeometry x="100" y="1160" width="80" height="80" as="geometry" />
        </mxCell>
        <mxCell id="Y3yjcSWuSIzL9Yitiwzz-4" value="Send invitation through Gmail" style="rounded=0;whiteSpace=wrap;html=1;fontSize=10;" parent="YVaSc3uNF6STMpNfNDtI-1" vertex="1">
          <mxGeometry x="280" y="1700" width="120" height="40" as="geometry" />
        </mxCell>
        <mxCell id="Y3yjcSWuSIzL9Yitiwzz-10" value="All Students" style="shape=offPageConnector;whiteSpace=wrap;html=1;size=0.25;fontSize=10;align=center;verticalAlign=middle;" parent="YVaSc3uNF6STMpNfNDtI-1" vertex="1">
          <mxGeometry x="480" y="680" width="80" height="80" as="geometry" />
        </mxCell>
        <mxCell id="Y3yjcSWuSIzL9Yitiwzz-13" value="DashB2" style="shape=offPageConnector;whiteSpace=wrap;html=1;size=0.25;fontSize=10;align=center;verticalAlign=middle;" parent="YVaSc3uNF6STMpNfNDtI-1" vertex="1">
          <mxGeometry x="100" y="1840" width="80" height="80" as="geometry" />
        </mxCell>
        <mxCell id="k9WebCVxCoJ_a3Yp9zaf-2" style="edgeStyle=orthogonalEdgeStyle;rounded=0;orthogonalLoop=1;jettySize=auto;html=1;" parent="YVaSc3uNF6STMpNfNDtI-1" source="Y3yjcSWuSIzL9Yitiwzz-16" edge="1">
          <mxGeometry relative="1" as="geometry">
            <mxPoint x="180" y="340" as="targetPoint" />
          </mxGeometry>
        </mxCell>
        <mxCell id="Y3yjcSWuSIzL9Yitiwzz-16" value="DashB2" style="shape=offPageConnector;whiteSpace=wrap;html=1;size=0.25;fontSize=10;align=center;verticalAlign=middle;" parent="YVaSc3uNF6STMpNfNDtI-1" vertex="1">
          <mxGeometry x="20" y="300" width="80" height="80" as="geometry" />
        </mxCell>
      </root>
    </mxGraphModel>
  </diagram>
</mxfile>
